<svg xmlns="http://www.w3.org/2000/svg" width="100" height="100"><path d="M23.781 40.844h1.172l1.172.097 1.316.246 1.172.391 1.223.586.586.39.633.489.633.586.44.535.442.586.438.781.39.832.293.926.246 1.125.094.781.051.73v1.321l-.05.438-13.915.05.242.828.297.54.39.488.68.535.833.441.73.243.883.148h1.121l.926-.148.781-.243.781-.39.54-.39.343-.294.242-.293.293.098 1.172.683 1.367.782 1.172.683.39.242-.097.247-.781.828-.488.441-.832.586-1.07.586-1.028.39-.977.294-.976.195-1.27.144h-2.297l-1.218-.144-1.32-.293-1.173-.39-1.316-.637-1.027-.684-.633-.535-.735-.735-.484-.632-.39-.637-.391-.781-.344-.88-.242-1.023-.149-1.125v-1.465l.196-1.316.293-1.027.293-.782.488-.925.586-.832.535-.586.688-.684.632-.488.782-.488.93-.489 1.023-.39 1.074-.293 1.074-.196zm.29 3.957l-.926.144-.73.246-.638.34-.488.39-.539.54-.39.684-.243.78v.196h8.106v-.539l-.196-.73-.293-.586-.539-.586-.39-.293-.586-.293-.633-.196-.734-.097zM0 34.059h6.64v19.578h5.712l.148.39 1.023 3.664.297 1.024v.148H0zm0 0" fill="#818385"/><path d="M80.422 42.066h1.656l.93.145 1.023.344.735.39.488.39.488.438.54.684.484.879.05.098.391-.586.535-.684.492-.488.73-.535.782-.442.926-.34.832-.195.683-.098h1.856l1.074.145 1.024.293.78.344.688.437.633.54.39.437.345.488.437.832.344 1.023.242 1.27v10.988h-2.637l-.05-9.914-.145-1.172-.246-.925-.34-.782-.441-.636-.485-.489-.636-.39-.586-.242-.586-.149-.88-.098h-.538l-.875.098-.735.195-.78.391-.54.39-.438.391-.539.782-.39.78-.29.977-.148.782-.047.488-.05 9.523H84.96l-.047-10.254-.102-1.074-.195-.879-.289-.781-.39-.586-.391-.39-.54-.344-.585-.242-.586-.149-.93-.098h-.535l-.73.098-.832.246-.832.438-.633.488-.438.441-.492.684-.437.828-.344 1.027-.145.73-.097 1.224v8.542l-.047.051h-2.59l-.05-13.332-.048-1.61-.047-.831v-.633h2.489l.097 1.172.047 1.121.051.488.488-.683.438-.489.492-.488.875-.586.781-.39.832-.293.88-.196zm-19.68 0h2.102l1.265.196.883.242.926.39.781.489.73.637.54.683.39.684.293.781.145.633.101 1.172.047 8.449.149 1.707.094.734h-2.344l-.047-.05-.195-1.61-.047-.976-.246.242-.586.636-.489.489-.734.535-.781.441-.73.293-.926.242-1.028.149h-2.004l-.926-.149-1.027-.292-.781-.34-.586-.344-.438-.34-.437-.39-.492-.637-.34-.684-.246-.828-.047-.344v-1.27l.195-.878.344-.781.39-.536.391-.441.633-.488.781-.438 1.024-.39 1.027-.293 1.316-.246L60.938 49l2-.148 1.906-.047h1.562l-.047-1.125-.148-.88-.293-.73-.34-.539-.246-.293-.586-.437-.683-.344-.829-.242-.636-.098-.684-.05h-.586l-1.074.097-1.074.246-.735.242-.633.293-.632.344-.688.488-.242.196-.684-.684-.34-.39-.39-.391-.05-.149.585-.488.879-.535 1.023-.488 1.028-.344 1.27-.293zm3.516 8.594l-1.953.098-1.563.195-1.172.242-1.172.39-.734.392-.484.39-.39.442-.298.586-.094.437v.781l.145.637.293.586.488.535.684.441.781.293.633.145 1.273.098 1.121-.098.832-.195.782-.293.78-.438.634-.539.344-.34.535-.78.39-.833.196-.73.097-.637V50.66zM33.64 43.773l.297.098.536.246 1.367.488 3.465 1.075 1.125.39 1.023.438.781.39.54.344.585.438.633.586.39.488.442.734.293.73.196.782.097.781v1.172l-.144.93-.246.879-.442.925-.39.586-.536.637-.34.34-.832.637-.78.437-.833.39-1.023.345-1.074.242-.977.148-.586.047h-1.512l-1.273-.144-1.172-.247-1.023-.292.242-.243.539-.441.488-.438.73-.734.782.195.687.098h1.657l.882-.145.828-.246.829-.34.687-.39.484-.39.344-.294.489-.636.39-.73.195-.735.051-.242V51.93l-.148-.735-.242-.586-.344-.586-.438-.488-.636-.488-.782-.438-.73-.343-1.223-.438-1.953-.586-.879-.246-.195-.39-.39-1.075-.391-.828-.54-.879zm2.641-10.351h2.242l1.711.293 1.024.293.93.344.976.488.781.535.684.586.39.441-.246.243-.875.636-.93.684-.195.047-.437-.489-.39-.39-.688-.488-.926-.489-.879-.293-.93-.195-.484-.047h-1.613l-.926.145-.977.293-.832.39-.586.39-.488.442-.344.34-.39.637-.242.535-.196.832v1.172l.149.828-1.078-.684-.926-.488-.977-.39v-.438l.145-.879.246-.781.246-.54.29-.534.491-.637.34-.39.39-.34.731-.54.781-.437.735-.344 1.172-.39 1.074-.243zm12.059 9.035h2.59l.047.047v16.36H48.34l-.05-3.907v-6.105zm.926-6.25H50l.54.145.585.293.535.488.246.39.145.442.05.535-.101.54-.29.585-.296.34-.484.344-.586.242-.54.097-.683-.046-.637-.247-.535-.34-.39-.44-.246-.49-.094-.339v-.637l.144-.488.293-.488.39-.39.438-.294zm0 0" fill="#079ad6"/><path d="M62.598 63.012h1.367l.441 1.418.196.632v.098h.093l.051-.437.488-1.516.098-.195h1.27l.632 2.004v.144h.102l.094-.488.492-1.66h1.367l-1.223 3.175-.097.243-1.27.05-.246-.585-.535-1.516-.145.39-.539 1.614-.046.047-1.223.05-.145-.195-.832-2.2-.39-1.022zm0 0" fill="#818487"/><path d="M78.758 61.207h1.273v3.172l.242-.242.633-.735.344-.39h1.516l-.297.343-.438.489-.437.437-.196.246.094.196.54.683.683.828.097.196H81.25l-.684-.926-.488-.637-.047 1.563h-1.273zm0 0" fill="#808487"/><path d="M71.875 62.867l.684.047.488.148.488.293.34.34.246.489.05.195v.637l-.148.488-.293.39-.39.34-.39.196-.442.148h-.875l-.586-.195-.492-.293-.39-.442-.196-.488-.047-.535.098-.488.246-.489.437-.39.488-.246zm-.098.977l-.293.144-.242.293-.101.344.05.438.293.39.293.149h.535l.297-.149.29-.34.05-.148v-.488l-.144-.293-.344-.293-.148-.047zm0 0" fill="#818487"/><path d="M56.594 62.867l.68.047.538.195.438.344.297.488.144.536v.539l-.05.046h-2.735l.196.293.246.196.246.097h.484l.39-.144.15-.149.241.051.688.39-.149.243-.437.293-.492.195-.242.051h-.829l-.734-.246-.39-.293-.344-.39-.196-.489v-.828l.246-.586.34-.39.492-.294.438-.148zm-.149.828l-.293.196-.195.246-.05.195h1.663l-.101-.344-.29-.242-.1-.05zm0 0" fill="#828688"/><path d="M43.164 62.867l.633.047.539.195.39.293.243.293.195.442.102.73v.149l-.102.046-2.684.051.247.34.242.149.195.046h.488l.489-.242.195-.05.539.343.195.098-.101.195-.438.34-.539.195-.195.051h-.875l-.586-.195-.492-.293-.34-.39-.195-.442-.051-.293v-.438l.101-.441.29-.488.343-.34.488-.246zm-.148.828l-.34.196-.196.293v.148h1.614l-.051-.293-.246-.246-.145-.098zm0 0" fill="#838689"/><path d="M35.398 62.867l.493.047.437.195.293.246.246.489.047.34v2.246h-1.27l-.05-2.098-.145-.344-.195-.097h-.39l-.294.195-.097.195-.051.684v1.465h-1.266l-.05-.196v-3.222h1.269v.39l.344-.293.39-.195zm0 0" fill="#838587"/><path d="M51.805 62.914h.734l.488.195.246.246.243.391.047.195v2.489h-1.22l-.097-2.196-.144-.246-.149-.097h-.437l-.297.246-.094.242-.05 2.05h-1.27v-3.417h1.218v.39l.54-.39zm0 0" fill="#808487"/><path d="M59.96 62.086h1.27v.926h.88v.832h-.88l.051 1.61.047.097.149.05.586.047v.782l-.344.097h-.735l-.484-.144-.297-.246-.195-.39-.047-1.024v-.88h-.586v-.831h.586zm0 0" fill="#818588"/><path d="M38.379 62.086h1.223v.926h.875v.832h-.875l.046 1.562.047.145.149.05.586.047.047.735-.34.144h-.832l-.438-.144-.293-.246-.195-.489v-1.804h-.637v-.832l.637-.047zm0 0" fill="#808385"/><path d="M48.29 62.914h.636v.54l-.051.487h-.586l-.289.145-.246.293-.05.098-.048 1.953h-1.27v-3.418h1.223l.047.39.438-.39zm0 0" fill="#838689"/><path d="M77.297 62.914h.586l-.051 1.027h-.586l-.39.196-.196.34-.05 1.953h-1.266v-3.418h1.219l.046.39.442-.39zm0 0" fill="#808385"/><path d="M31.688 62.965l.101.097-.05 3.368h-1.223v-3.418zm0 0" fill="#818385"/><path d="M30.957 61.254l.488.05.242.145.149.246v.39l-.293.34-.293.098-.438-.046-.343-.293-.047-.098v-.39l.289-.344zm0 0" fill="#7f8488"/></svg>