<?xml version="1.0" encoding="UTF-8"?>
<svg xmlns="http://www.w3.org/2000/svg" xmlns:xlink="http://www.w3.org/1999/xlink" width="32px" height="32px" viewBox="0 0 32 32" version="1.1">
<g id="surface1">
<path style=" stroke:none;fill-rule:nonzero;fill:rgb(50.588235%,51.372549%,52.156863%);fill-opacity:1;" d="M 7.609375 13.070312 L 7.984375 13.070312 L 8.359375 13.101562 L 8.78125 13.179688 L 9.15625 13.304688 L 9.546875 13.492188 L 9.734375 13.617188 L 9.9375 13.773438 L 10.140625 13.960938 L 10.28125 14.132812 L 10.421875 14.320312 L 10.5625 14.570312 L 10.6875 14.835938 L 10.78125 15.132812 L 10.859375 15.492188 L 10.890625 15.742188 L 10.90625 15.976562 L 10.90625 16.398438 L 10.890625 16.539062 L 6.4375 16.554688 L 6.515625 16.820312 L 6.609375 16.992188 L 6.734375 17.148438 L 6.953125 17.320312 L 7.21875 17.460938 L 7.453125 17.539062 L 7.734375 17.585938 L 8.09375 17.585938 L 8.390625 17.539062 L 8.640625 17.460938 L 8.890625 17.335938 L 9.0625 17.210938 L 9.171875 17.117188 L 9.25 17.023438 L 9.34375 17.054688 L 9.71875 17.273438 L 10.15625 17.523438 L 10.53125 17.742188 L 10.65625 17.820312 L 10.625 17.898438 L 10.375 18.164062 L 10.21875 18.304688 L 9.953125 18.492188 L 9.609375 18.679688 L 9.28125 18.804688 L 8.96875 18.898438 L 8.65625 18.960938 L 8.25 19.007812 L 7.515625 19.007812 L 7.125 18.960938 L 6.703125 18.867188 L 6.328125 18.742188 L 5.90625 18.539062 L 5.578125 18.320312 L 5.375 18.148438 L 5.140625 17.914062 L 4.984375 17.710938 L 4.859375 17.507812 L 4.734375 17.257812 L 4.625 16.976562 L 4.546875 16.648438 L 4.5 16.289062 L 4.5 15.820312 L 4.5625 15.398438 L 4.65625 15.070312 L 4.75 14.820312 L 4.90625 14.523438 L 5.09375 14.257812 L 5.265625 14.070312 L 5.484375 13.851562 L 5.6875 13.695312 L 5.9375 13.539062 L 6.234375 13.382812 L 6.5625 13.257812 L 6.90625 13.164062 L 7.25 13.101562 Z M 7.703125 14.335938 L 7.40625 14.382812 L 7.171875 14.460938 L 6.96875 14.570312 L 6.8125 14.695312 L 6.640625 14.867188 L 6.515625 15.085938 L 6.4375 15.335938 L 6.4375 15.398438 L 9.03125 15.398438 L 9.03125 15.226562 L 8.96875 14.992188 L 8.875 14.804688 L 8.703125 14.617188 L 8.578125 14.523438 L 8.390625 14.429688 L 8.1875 14.367188 L 7.953125 14.335938 Z M 7.703125 14.335938 "/>
<path style=" stroke:none;fill-rule:nonzero;fill:rgb(50.588235%,51.372549%,52.156863%);fill-opacity:1;" d="M 0 10.898438 L 2.125 10.898438 L 2.125 17.164062 L 3.953125 17.164062 L 4 17.289062 L 4.328125 18.460938 L 4.421875 18.789062 L 4.421875 18.835938 L 0 18.835938 Z M 0 10.898438 "/>
<path style=" stroke:none;fill-rule:nonzero;fill:rgb(2.745098%,60.392157%,83.921569%);fill-opacity:1;" d="M 25.734375 13.460938 L 26.265625 13.460938 L 26.5625 13.507812 L 26.890625 13.617188 L 27.125 13.742188 L 27.28125 13.867188 L 27.4375 14.007812 L 27.609375 14.226562 L 27.765625 14.507812 L 27.78125 14.539062 L 27.90625 14.351562 L 28.078125 14.132812 L 28.234375 13.976562 L 28.46875 13.804688 L 28.71875 13.664062 L 29.015625 13.554688 L 29.28125 13.492188 L 29.5 13.460938 L 30.09375 13.460938 L 30.4375 13.507812 L 30.765625 13.601562 L 31.015625 13.710938 L 31.234375 13.851562 L 31.4375 14.023438 L 31.5625 14.164062 L 31.671875 14.320312 L 31.8125 14.585938 L 31.921875 14.914062 L 32 15.320312 L 32 18.835938 L 31.15625 18.835938 L 31.140625 15.664062 L 31.09375 15.289062 L 31.015625 14.992188 L 30.90625 14.742188 L 30.765625 14.539062 L 30.609375 14.382812 L 30.40625 14.257812 L 30.21875 14.179688 L 30.03125 14.132812 L 29.75 14.101562 L 29.578125 14.101562 L 29.296875 14.132812 L 29.0625 14.195312 L 28.8125 14.320312 L 28.640625 14.445312 L 28.5 14.570312 L 28.328125 14.820312 L 28.203125 15.070312 L 28.109375 15.382812 L 28.0625 15.632812 L 28.046875 15.789062 L 28.03125 18.835938 L 27.1875 18.835938 L 27.171875 15.554688 L 27.140625 15.210938 L 27.078125 14.929688 L 26.984375 14.679688 L 26.859375 14.492188 L 26.734375 14.367188 L 26.5625 14.257812 L 26.375 14.179688 L 26.1875 14.132812 L 25.890625 14.101562 L 25.71875 14.101562 L 25.484375 14.132812 L 25.21875 14.210938 L 24.953125 14.351562 L 24.75 14.507812 L 24.609375 14.648438 L 24.453125 14.867188 L 24.3125 15.132812 L 24.203125 15.460938 L 24.15625 15.695312 L 24.125 16.085938 L 24.125 18.820312 L 24.109375 18.835938 L 23.28125 18.835938 L 23.265625 14.570312 L 23.25 14.054688 L 23.234375 13.789062 L 23.234375 13.585938 L 24.03125 13.585938 L 24.0625 13.960938 L 24.078125 14.320312 L 24.09375 14.476562 L 24.25 14.257812 L 24.390625 14.101562 L 24.546875 13.945312 L 24.828125 13.757812 L 25.078125 13.632812 L 25.34375 13.539062 L 25.625 13.476562 Z M 25.734375 13.460938 "/>
<path style=" stroke:none;fill-rule:nonzero;fill:rgb(2.745098%,60.392157%,83.921569%);fill-opacity:1;" d="M 19.4375 13.460938 L 20.109375 13.460938 L 20.515625 13.523438 L 20.796875 13.601562 L 21.09375 13.726562 L 21.34375 13.882812 L 21.578125 14.085938 L 21.75 14.304688 L 21.875 14.523438 L 21.96875 14.773438 L 22.015625 14.976562 L 22.046875 15.351562 L 22.0625 18.054688 L 22.109375 18.601562 L 22.140625 18.835938 L 21.390625 18.835938 L 21.375 18.820312 L 21.3125 18.304688 L 21.296875 17.992188 L 21.21875 18.070312 L 21.03125 18.273438 L 20.875 18.429688 L 20.640625 18.601562 L 20.390625 18.742188 L 20.15625 18.835938 L 19.859375 18.914062 L 19.53125 18.960938 L 18.890625 18.960938 L 18.59375 18.914062 L 18.265625 18.820312 L 18.015625 18.710938 L 17.828125 18.601562 L 17.6875 18.492188 L 17.546875 18.367188 L 17.390625 18.164062 L 17.28125 17.945312 L 17.203125 17.679688 L 17.1875 17.570312 L 17.1875 17.164062 L 17.25 16.882812 L 17.359375 16.632812 L 17.484375 16.460938 L 17.609375 16.320312 L 17.8125 16.164062 L 18.0625 16.023438 L 18.390625 15.898438 L 18.71875 15.804688 L 19.140625 15.726562 L 19.5 15.679688 L 20.140625 15.632812 L 20.75 15.617188 L 21.25 15.617188 L 21.234375 15.257812 L 21.1875 14.976562 L 21.09375 14.742188 L 20.984375 14.570312 L 20.90625 14.476562 L 20.71875 14.335938 L 20.5 14.226562 L 20.234375 14.148438 L 20.03125 14.117188 L 19.8125 14.101562 L 19.625 14.101562 L 19.28125 14.132812 L 18.9375 14.210938 L 18.703125 14.289062 L 18.5 14.382812 L 18.296875 14.492188 L 18.078125 14.648438 L 18 14.710938 L 17.78125 14.492188 L 17.671875 14.367188 L 17.546875 14.242188 L 17.53125 14.195312 L 17.71875 14.039062 L 18 13.867188 L 18.328125 13.710938 L 18.65625 13.601562 L 19.0625 13.507812 Z M 20.5625 16.210938 L 19.9375 16.242188 L 19.4375 16.304688 L 19.0625 16.382812 L 18.6875 16.507812 L 18.453125 16.632812 L 18.296875 16.757812 L 18.171875 16.898438 L 18.078125 17.085938 L 18.046875 17.226562 L 18.046875 17.476562 L 18.09375 17.679688 L 18.1875 17.867188 L 18.34375 18.039062 L 18.5625 18.179688 L 18.8125 18.273438 L 19.015625 18.320312 L 19.421875 18.351562 L 19.78125 18.320312 L 20.046875 18.257812 L 20.296875 18.164062 L 20.546875 18.023438 L 20.75 17.851562 L 20.859375 17.742188 L 21.03125 17.492188 L 21.15625 17.226562 L 21.21875 16.992188 L 21.25 16.789062 L 21.25 16.210938 Z M 20.5625 16.210938 "/>
<path style=" stroke:none;fill-rule:nonzero;fill:rgb(2.745098%,60.392157%,83.921569%);fill-opacity:1;" d="M 10.765625 14.007812 L 10.859375 14.039062 L 11.03125 14.117188 L 11.46875 14.273438 L 12.578125 14.617188 L 12.9375 14.742188 L 13.265625 14.882812 L 13.515625 15.007812 L 13.6875 15.117188 L 13.875 15.257812 L 14.078125 15.445312 L 14.203125 15.601562 L 14.34375 15.835938 L 14.4375 16.070312 L 14.5 16.320312 L 14.53125 16.570312 L 14.53125 16.945312 L 14.484375 17.242188 L 14.40625 17.523438 L 14.265625 17.820312 L 14.140625 18.007812 L 13.96875 18.210938 L 13.859375 18.320312 L 13.59375 18.523438 L 13.34375 18.664062 L 13.078125 18.789062 L 12.75 18.898438 L 12.40625 18.976562 L 12.09375 19.023438 L 11.90625 19.039062 L 11.421875 19.039062 L 11.015625 18.992188 L 10.640625 18.914062 L 10.3125 18.820312 L 10.390625 18.742188 L 10.5625 18.601562 L 10.71875 18.460938 L 10.953125 18.226562 L 11.203125 18.289062 L 11.421875 18.320312 L 11.953125 18.320312 L 12.234375 18.273438 L 12.5 18.195312 L 12.765625 18.085938 L 12.984375 17.960938 L 13.140625 17.835938 L 13.25 17.742188 L 13.40625 17.539062 L 13.53125 17.304688 L 13.59375 17.070312 L 13.609375 16.992188 L 13.609375 16.617188 L 13.5625 16.382812 L 13.484375 16.195312 L 13.375 16.007812 L 13.234375 15.851562 L 13.03125 15.695312 L 12.78125 15.554688 L 12.546875 15.445312 L 12.15625 15.304688 L 11.53125 15.117188 L 11.25 15.039062 L 11.1875 14.914062 L 11.0625 14.570312 L 10.9375 14.304688 L 10.765625 14.023438 Z M 10.765625 14.007812 "/>
<path style=" stroke:none;fill-rule:nonzero;fill:rgb(2.745098%,60.392157%,83.921569%);fill-opacity:1;" d="M 11.609375 10.695312 L 12.328125 10.695312 L 12.875 10.789062 L 13.203125 10.882812 L 13.5 10.992188 L 13.8125 11.148438 L 14.0625 11.320312 L 14.28125 11.507812 L 14.40625 11.648438 L 14.328125 11.726562 L 14.046875 11.929688 L 13.75 12.148438 L 13.6875 12.164062 L 13.546875 12.007812 L 13.421875 11.882812 L 13.203125 11.726562 L 12.90625 11.570312 L 12.625 11.476562 L 12.328125 11.414062 L 12.171875 11.398438 L 11.65625 11.398438 L 11.359375 11.445312 L 11.046875 11.539062 L 10.78125 11.664062 L 10.59375 11.789062 L 10.4375 11.929688 L 10.328125 12.039062 L 10.203125 12.242188 L 10.125 12.414062 L 10.0625 12.679688 L 10.0625 13.054688 L 10.109375 13.320312 L 9.765625 13.101562 L 9.46875 12.945312 L 9.15625 12.820312 L 9.15625 12.679688 L 9.203125 12.398438 L 9.28125 12.148438 L 9.359375 11.976562 L 9.453125 11.804688 L 9.609375 11.601562 L 9.71875 11.476562 L 9.84375 11.367188 L 10.078125 11.195312 L 10.328125 11.054688 L 10.5625 10.945312 L 10.9375 10.820312 L 11.28125 10.742188 Z M 11.609375 10.695312 "/>
<path style=" stroke:none;fill-rule:nonzero;fill:rgb(2.745098%,60.392157%,83.921569%);fill-opacity:1;" d="M 15.46875 13.585938 L 16.296875 13.585938 L 16.3125 13.601562 L 16.3125 18.835938 L 15.46875 18.835938 L 15.453125 17.585938 L 15.453125 15.632812 Z M 15.46875 13.585938 "/>
<path style=" stroke:none;fill-rule:nonzero;fill:rgb(2.745098%,60.392157%,83.921569%);fill-opacity:1;" d="M 15.765625 11.585938 L 16 11.585938 L 16.171875 11.632812 L 16.359375 11.726562 L 16.53125 11.882812 L 16.609375 12.007812 L 16.65625 12.148438 L 16.671875 12.320312 L 16.640625 12.492188 L 16.546875 12.679688 L 16.453125 12.789062 L 16.296875 12.898438 L 16.109375 12.976562 L 15.9375 13.007812 L 15.71875 12.992188 L 15.515625 12.914062 L 15.34375 12.804688 L 15.21875 12.664062 L 15.140625 12.507812 L 15.109375 12.398438 L 15.109375 12.195312 L 15.15625 12.039062 L 15.25 11.882812 L 15.375 11.757812 L 15.515625 11.664062 Z M 15.765625 11.585938 "/>
<path style=" stroke:none;fill-rule:nonzero;fill:rgb(50.588235%,51.764706%,52.941176%);fill-opacity:1;" d="M 20.03125 20.164062 L 20.46875 20.164062 L 20.609375 20.617188 L 20.671875 20.820312 L 20.671875 20.851562 L 20.703125 20.851562 L 20.71875 20.710938 L 20.875 20.226562 L 20.90625 20.164062 L 21.3125 20.164062 L 21.515625 20.804688 L 21.515625 20.851562 L 21.546875 20.851562 L 21.578125 20.695312 L 21.734375 20.164062 L 22.171875 20.164062 L 21.78125 21.179688 L 21.75 21.257812 L 21.34375 21.273438 L 21.265625 21.085938 L 21.09375 20.601562 L 21.046875 20.726562 L 20.875 21.242188 L 20.859375 21.257812 L 20.46875 21.273438 L 20.421875 21.210938 L 20.15625 20.507812 L 20.03125 20.179688 Z M 20.03125 20.164062 "/>
<path style=" stroke:none;fill-rule:nonzero;fill:rgb(50.196078%,51.764706%,52.941176%);fill-opacity:1;" d="M 25.203125 19.585938 L 25.609375 19.585938 L 25.609375 20.601562 L 25.6875 20.523438 L 25.890625 20.289062 L 26 20.164062 L 26.484375 20.164062 L 26.390625 20.273438 L 26.25 20.429688 L 26.109375 20.570312 L 26.046875 20.648438 L 26.078125 20.710938 L 26.25 20.929688 L 26.46875 21.195312 L 26.5 21.257812 L 26 21.257812 L 25.78125 20.960938 L 25.625 20.757812 L 25.609375 21.257812 L 25.203125 21.257812 Z M 25.203125 19.585938 "/>
<path style=" stroke:none;fill-rule:nonzero;fill:rgb(50.588235%,51.764706%,52.941176%);fill-opacity:1;" d="M 23 20.117188 L 23.21875 20.132812 L 23.375 20.179688 L 23.53125 20.273438 L 23.640625 20.382812 L 23.71875 20.539062 L 23.734375 20.601562 L 23.734375 20.804688 L 23.6875 20.960938 L 23.59375 21.085938 L 23.46875 21.195312 L 23.34375 21.257812 L 23.203125 21.304688 L 22.921875 21.304688 L 22.734375 21.242188 L 22.578125 21.148438 L 22.453125 21.007812 L 22.390625 20.851562 L 22.375 20.679688 L 22.40625 20.523438 L 22.484375 20.367188 L 22.625 20.242188 L 22.78125 20.164062 Z M 22.96875 20.429688 L 22.875 20.476562 L 22.796875 20.570312 L 22.765625 20.679688 L 22.78125 20.820312 L 22.875 20.945312 L 22.96875 20.992188 L 23.140625 20.992188 L 23.234375 20.945312 L 23.328125 20.835938 L 23.34375 20.789062 L 23.34375 20.632812 L 23.296875 20.539062 L 23.1875 20.445312 L 23.140625 20.429688 Z M 22.96875 20.429688 "/>
<path style=" stroke:none;fill-rule:nonzero;fill:rgb(50.980392%,52.54902%,53.333333%);fill-opacity:1;" d="M 18.109375 20.117188 L 18.328125 20.132812 L 18.5 20.195312 L 18.640625 20.304688 L 18.734375 20.460938 L 18.78125 20.632812 L 18.78125 20.804688 L 18.765625 20.820312 L 17.890625 20.820312 L 17.953125 20.914062 L 18.03125 20.976562 L 18.109375 21.007812 L 18.265625 21.007812 L 18.390625 20.960938 L 18.4375 20.914062 L 18.515625 20.929688 L 18.734375 21.054688 L 18.6875 21.132812 L 18.546875 21.226562 L 18.390625 21.289062 L 18.3125 21.304688 L 18.046875 21.304688 L 17.8125 21.226562 L 17.6875 21.132812 L 17.578125 21.007812 L 17.515625 20.851562 L 17.515625 20.585938 L 17.59375 20.398438 L 17.703125 20.273438 L 17.859375 20.179688 L 18 20.132812 Z M 18.0625 20.382812 L 17.96875 20.445312 L 17.90625 20.523438 L 17.890625 20.585938 L 18.421875 20.585938 L 18.390625 20.476562 L 18.296875 20.398438 L 18.265625 20.382812 Z M 18.0625 20.382812 "/>
<path style=" stroke:none;fill-rule:nonzero;fill:rgb(51.372549%,52.54902%,53.72549%);fill-opacity:1;" d="M 13.8125 20.117188 L 14.015625 20.132812 L 14.1875 20.195312 L 14.3125 20.289062 L 14.390625 20.382812 L 14.453125 20.523438 L 14.484375 20.757812 L 14.484375 20.804688 L 14.453125 20.820312 L 13.59375 20.835938 L 13.671875 20.945312 L 13.75 20.992188 L 13.8125 21.007812 L 13.96875 21.007812 L 14.125 20.929688 L 14.1875 20.914062 L 14.359375 21.023438 L 14.421875 21.054688 L 14.390625 21.117188 L 14.25 21.226562 L 14.078125 21.289062 L 14.015625 21.304688 L 13.734375 21.304688 L 13.546875 21.242188 L 13.390625 21.148438 L 13.28125 21.023438 L 13.21875 20.882812 L 13.203125 20.789062 L 13.203125 20.648438 L 13.234375 20.507812 L 13.328125 20.351562 L 13.4375 20.242188 L 13.59375 20.164062 Z M 13.765625 20.382812 L 13.65625 20.445312 L 13.59375 20.539062 L 13.59375 20.585938 L 14.109375 20.585938 L 14.09375 20.492188 L 14.015625 20.414062 L 13.96875 20.382812 Z M 13.765625 20.382812 "/>
<path style=" stroke:none;fill-rule:nonzero;fill:rgb(51.372549%,52.156863%,52.941176%);fill-opacity:1;" d="M 11.328125 20.117188 L 11.484375 20.132812 L 11.625 20.195312 L 11.71875 20.273438 L 11.796875 20.429688 L 11.8125 20.539062 L 11.8125 21.257812 L 11.40625 21.257812 L 11.390625 20.585938 L 11.34375 20.476562 L 11.28125 20.445312 L 11.15625 20.445312 L 11.0625 20.507812 L 11.03125 20.570312 L 11.015625 20.789062 L 11.015625 21.257812 L 10.609375 21.257812 L 10.59375 21.195312 L 10.59375 20.164062 L 11 20.164062 L 11 20.289062 L 11.109375 20.195312 L 11.234375 20.132812 Z M 11.328125 20.117188 "/>
<path style=" stroke:none;fill-rule:nonzero;fill:rgb(50.196078%,51.764706%,52.941176%);fill-opacity:1;" d="M 16.578125 20.132812 L 16.8125 20.132812 L 16.96875 20.195312 L 17.046875 20.273438 L 17.125 20.398438 L 17.140625 20.460938 L 17.140625 21.257812 L 16.75 21.257812 L 16.71875 20.554688 L 16.671875 20.476562 L 16.625 20.445312 L 16.484375 20.445312 L 16.390625 20.523438 L 16.359375 20.601562 L 16.34375 21.257812 L 15.9375 21.257812 L 15.9375 20.164062 L 16.328125 20.164062 L 16.328125 20.289062 L 16.5 20.164062 Z M 16.578125 20.132812 "/>
<path style=" stroke:none;fill-rule:nonzero;fill:rgb(50.588235%,52.156863%,53.333333%);fill-opacity:1;" d="M 19.1875 19.867188 L 19.59375 19.867188 L 19.59375 20.164062 L 19.875 20.164062 L 19.875 20.429688 L 19.59375 20.429688 L 19.609375 20.945312 L 19.625 20.976562 L 19.671875 20.992188 L 19.859375 21.007812 L 19.859375 21.257812 L 19.75 21.289062 L 19.515625 21.289062 L 19.359375 21.242188 L 19.265625 21.164062 L 19.203125 21.039062 L 19.1875 20.710938 L 19.1875 20.429688 L 19 20.429688 L 19 20.164062 L 19.1875 20.164062 Z M 19.1875 19.867188 "/>
<path style=" stroke:none;fill-rule:nonzero;fill:rgb(50.196078%,51.372549%,52.156863%);fill-opacity:1;" d="M 12.28125 19.867188 L 12.671875 19.867188 L 12.671875 20.164062 L 12.953125 20.164062 L 12.953125 20.429688 L 12.671875 20.429688 L 12.6875 20.929688 L 12.703125 20.976562 L 12.75 20.992188 L 12.9375 21.007812 L 12.953125 21.242188 L 12.84375 21.289062 L 12.578125 21.289062 L 12.4375 21.242188 L 12.34375 21.164062 L 12.28125 21.007812 L 12.28125 20.429688 L 12.078125 20.429688 L 12.078125 20.164062 L 12.28125 20.148438 Z M 12.28125 19.867188 "/>
<path style=" stroke:none;fill-rule:nonzero;fill:rgb(51.372549%,52.54902%,53.72549%);fill-opacity:1;" d="M 15.453125 20.132812 L 15.65625 20.132812 L 15.65625 20.304688 L 15.640625 20.460938 L 15.453125 20.460938 L 15.359375 20.507812 L 15.28125 20.601562 L 15.265625 20.632812 L 15.25 21.257812 L 14.84375 21.257812 L 14.84375 20.164062 L 15.234375 20.164062 L 15.25 20.289062 L 15.390625 20.164062 Z M 15.453125 20.132812 "/>
<path style=" stroke:none;fill-rule:nonzero;fill:rgb(50.196078%,51.372549%,52.156863%);fill-opacity:1;" d="M 24.734375 20.132812 L 24.921875 20.132812 L 24.90625 20.460938 L 24.71875 20.460938 L 24.59375 20.523438 L 24.53125 20.632812 L 24.515625 21.257812 L 24.109375 21.257812 L 24.109375 20.164062 L 24.5 20.164062 L 24.515625 20.289062 L 24.65625 20.164062 Z M 24.734375 20.132812 "/>
<path style=" stroke:none;fill-rule:nonzero;fill:rgb(50.588235%,51.372549%,52.156863%);fill-opacity:1;" d="M 10.140625 20.148438 L 10.171875 20.179688 L 10.15625 21.257812 L 9.765625 21.257812 L 9.765625 20.164062 Z M 10.140625 20.148438 "/>
<path style=" stroke:none;fill-rule:nonzero;fill:rgb(49.803922%,51.764706%,53.333333%);fill-opacity:1;" d="M 9.90625 19.601562 L 10.0625 19.617188 L 10.140625 19.664062 L 10.1875 19.742188 L 10.1875 19.867188 L 10.09375 19.976562 L 10 20.007812 L 9.859375 19.992188 L 9.75 19.898438 L 9.734375 19.867188 L 9.734375 19.742188 L 9.828125 19.632812 Z M 9.90625 19.601562 "/>
</g>
</svg>
