<?xml version="1.0" encoding="UTF-8"?>
<svg xmlns="http://www.w3.org/2000/svg" xmlns:xlink="http://www.w3.org/1999/xlink" width="100px" height="100px" viewBox="0 0 100 100" version="1.1">
<g id="surface1">
<path style=" stroke:none;fill-rule:nonzero;fill:rgb(50.588235%,51.372549%,52.156863%);fill-opacity:1;" d="M 23.78125 40.84375 L 24.953125 40.84375 L 26.125 40.941406 L 27.441406 41.1875 L 28.613281 41.578125 L 29.835938 42.164062 L 30.421875 42.554688 L 31.054688 43.042969 L 31.6875 43.628906 L 32.128906 44.164062 L 32.570312 44.75 L 33.007812 45.53125 L 33.398438 46.363281 L 33.691406 47.289062 L 33.9375 48.414062 L 34.03125 49.195312 L 34.082031 49.925781 L 34.082031 51.246094 L 34.03125 51.683594 L 20.117188 51.734375 L 20.359375 52.5625 L 20.65625 53.101562 L 21.046875 53.589844 L 21.726562 54.125 L 22.558594 54.566406 L 23.289062 54.808594 L 24.171875 54.957031 L 25.292969 54.957031 L 26.21875 54.808594 L 27 54.566406 L 27.78125 54.175781 L 28.320312 53.785156 L 28.664062 53.492188 L 28.90625 53.199219 L 29.199219 53.296875 L 30.371094 53.980469 L 31.738281 54.761719 L 32.910156 55.445312 L 33.300781 55.6875 L 33.203125 55.933594 L 32.421875 56.761719 L 31.933594 57.203125 L 31.101562 57.789062 L 30.03125 58.375 L 29.003906 58.765625 L 28.027344 59.058594 L 27.050781 59.253906 L 25.78125 59.398438 L 23.484375 59.398438 L 22.265625 59.253906 L 20.945312 58.960938 L 19.773438 58.570312 L 18.457031 57.933594 L 17.429688 57.25 L 16.796875 56.714844 L 16.0625 55.980469 L 15.578125 55.347656 L 15.1875 54.710938 L 14.796875 53.929688 L 14.453125 53.050781 L 14.210938 52.027344 L 14.0625 50.902344 L 14.0625 49.4375 L 14.257812 48.121094 L 14.550781 47.09375 L 14.84375 46.3125 L 15.332031 45.386719 L 15.917969 44.554688 L 16.453125 43.96875 L 17.140625 43.285156 L 17.773438 42.796875 L 18.554688 42.308594 L 19.484375 41.820312 L 20.507812 41.429688 L 21.582031 41.136719 L 22.65625 40.941406 Z M 24.070312 44.800781 L 23.144531 44.945312 L 22.414062 45.191406 L 21.777344 45.53125 L 21.289062 45.921875 L 20.75 46.460938 L 20.359375 47.144531 L 20.117188 47.925781 L 20.117188 48.121094 L 28.222656 48.121094 L 28.222656 47.582031 L 28.027344 46.851562 L 27.734375 46.265625 L 27.195312 45.679688 L 26.804688 45.386719 L 26.21875 45.09375 L 25.585938 44.898438 L 24.851562 44.800781 Z M 24.070312 44.800781 "/>
<path style=" stroke:none;fill-rule:nonzero;fill:rgb(50.588235%,51.372549%,52.156863%);fill-opacity:1;" d="M 0 34.058594 L 6.640625 34.058594 L 6.640625 53.636719 L 12.351562 53.636719 L 12.5 54.027344 L 13.523438 57.691406 L 13.820312 58.714844 L 13.820312 58.863281 L 0 58.863281 Z M 0 34.058594 "/>
<path style=" stroke:none;fill-rule:nonzero;fill:rgb(2.745098%,60.392157%,83.921569%);fill-opacity:1;" d="M 80.421875 42.066406 L 82.078125 42.066406 L 83.007812 42.210938 L 84.03125 42.554688 L 84.765625 42.945312 L 85.253906 43.335938 L 85.742188 43.773438 L 86.28125 44.457031 L 86.765625 45.335938 L 86.816406 45.433594 L 87.207031 44.847656 L 87.742188 44.164062 L 88.234375 43.675781 L 88.964844 43.140625 L 89.746094 42.699219 L 90.671875 42.359375 L 91.503906 42.164062 L 92.1875 42.066406 L 94.042969 42.066406 L 95.117188 42.210938 L 96.140625 42.503906 L 96.921875 42.847656 L 97.609375 43.285156 L 98.242188 43.824219 L 98.632812 44.261719 L 98.976562 44.75 L 99.414062 45.582031 L 99.757812 46.605469 L 100 47.875 L 100 58.863281 L 97.363281 58.863281 L 97.3125 48.949219 L 97.167969 47.777344 L 96.921875 46.851562 L 96.582031 46.070312 L 96.140625 45.433594 L 95.65625 44.945312 L 95.019531 44.554688 L 94.433594 44.3125 L 93.847656 44.164062 L 92.96875 44.066406 L 92.429688 44.066406 L 91.554688 44.164062 L 90.820312 44.359375 L 90.039062 44.75 L 89.5 45.140625 L 89.0625 45.53125 L 88.523438 46.3125 L 88.132812 47.09375 L 87.84375 48.070312 L 87.695312 48.851562 L 87.648438 49.339844 L 87.597656 58.863281 L 84.960938 58.863281 L 84.914062 48.609375 L 84.8125 47.535156 L 84.617188 46.65625 L 84.328125 45.875 L 83.9375 45.289062 L 83.546875 44.898438 L 83.007812 44.554688 L 82.421875 44.3125 L 81.835938 44.164062 L 80.90625 44.066406 L 80.371094 44.066406 L 79.640625 44.164062 L 78.808594 44.410156 L 77.976562 44.847656 L 77.34375 45.335938 L 76.90625 45.777344 L 76.414062 46.460938 L 75.976562 47.289062 L 75.632812 48.316406 L 75.488281 49.046875 L 75.390625 50.269531 L 75.390625 58.8125 L 75.34375 58.863281 L 72.753906 58.863281 L 72.703125 45.53125 L 72.65625 43.921875 L 72.609375 43.089844 L 72.609375 42.457031 L 75.097656 42.457031 L 75.195312 43.628906 L 75.242188 44.75 L 75.292969 45.238281 L 75.78125 44.554688 L 76.21875 44.066406 L 76.710938 43.578125 L 77.585938 42.992188 L 78.367188 42.601562 L 79.199219 42.308594 L 80.078125 42.113281 Z M 80.421875 42.066406 "/>
<path style=" stroke:none;fill-rule:nonzero;fill:rgb(2.745098%,60.392157%,83.921569%);fill-opacity:1;" d="M 60.742188 42.066406 L 62.84375 42.066406 L 64.109375 42.261719 L 64.992188 42.503906 L 65.917969 42.894531 L 66.699219 43.382812 L 67.429688 44.019531 L 67.96875 44.703125 L 68.359375 45.386719 L 68.652344 46.167969 L 68.796875 46.800781 L 68.898438 47.972656 L 68.945312 56.421875 L 69.09375 58.128906 L 69.1875 58.863281 L 66.84375 58.863281 L 66.796875 58.8125 L 66.601562 57.203125 L 66.554688 56.226562 L 66.308594 56.46875 L 65.722656 57.105469 L 65.234375 57.59375 L 64.5 58.128906 L 63.71875 58.570312 L 62.988281 58.863281 L 62.0625 59.105469 L 61.035156 59.253906 L 59.03125 59.253906 L 58.105469 59.105469 L 57.078125 58.8125 L 56.296875 58.472656 L 55.710938 58.128906 L 55.273438 57.789062 L 54.835938 57.398438 L 54.34375 56.761719 L 54.003906 56.078125 L 53.757812 55.25 L 53.710938 54.90625 L 53.710938 53.636719 L 53.90625 52.757812 L 54.25 51.976562 L 54.640625 51.441406 L 55.03125 51 L 55.664062 50.511719 L 56.445312 50.074219 L 57.46875 49.683594 L 58.496094 49.390625 L 59.8125 49.144531 L 60.9375 49 L 62.9375 48.851562 L 64.84375 48.804688 L 66.40625 48.804688 L 66.359375 47.679688 L 66.210938 46.800781 L 65.917969 46.070312 L 65.578125 45.53125 L 65.332031 45.238281 L 64.746094 44.800781 L 64.0625 44.457031 L 63.234375 44.214844 L 62.597656 44.117188 L 61.914062 44.066406 L 61.328125 44.066406 L 60.253906 44.164062 L 59.179688 44.410156 L 58.445312 44.652344 L 57.8125 44.945312 L 57.179688 45.289062 L 56.492188 45.777344 L 56.25 45.972656 L 55.566406 45.289062 L 55.226562 44.898438 L 54.835938 44.507812 L 54.785156 44.359375 L 55.371094 43.871094 L 56.25 43.335938 L 57.273438 42.847656 L 58.300781 42.503906 L 59.570312 42.210938 Z M 64.257812 50.660156 L 62.304688 50.757812 L 60.742188 50.953125 L 59.570312 51.195312 L 58.398438 51.585938 L 57.664062 51.976562 L 57.179688 52.367188 L 56.789062 52.808594 L 56.492188 53.394531 L 56.398438 53.832031 L 56.398438 54.613281 L 56.542969 55.25 L 56.835938 55.835938 L 57.324219 56.371094 L 58.007812 56.8125 L 58.789062 57.105469 L 59.421875 57.25 L 60.695312 57.347656 L 61.816406 57.25 L 62.648438 57.054688 L 63.429688 56.761719 L 64.210938 56.324219 L 64.84375 55.785156 L 65.1875 55.445312 L 65.722656 54.664062 L 66.113281 53.832031 L 66.308594 53.101562 L 66.40625 52.464844 L 66.40625 50.660156 Z M 64.257812 50.660156 "/>
<path style=" stroke:none;fill-rule:nonzero;fill:rgb(2.745098%,60.392157%,83.921569%);fill-opacity:1;" d="M 33.640625 43.773438 L 33.9375 43.871094 L 34.472656 44.117188 L 35.839844 44.605469 L 39.304688 45.679688 L 40.429688 46.070312 L 41.453125 46.507812 L 42.234375 46.898438 L 42.773438 47.242188 L 43.359375 47.679688 L 43.992188 48.265625 L 44.382812 48.753906 L 44.824219 49.488281 L 45.117188 50.21875 L 45.3125 51 L 45.410156 51.78125 L 45.410156 52.953125 L 45.265625 53.882812 L 45.019531 54.761719 L 44.578125 55.6875 L 44.1875 56.273438 L 43.652344 56.910156 L 43.3125 57.25 L 42.480469 57.886719 L 41.699219 58.324219 L 40.867188 58.714844 L 39.84375 59.058594 L 38.769531 59.300781 L 37.792969 59.449219 L 37.207031 59.496094 L 35.695312 59.496094 L 34.421875 59.351562 L 33.25 59.105469 L 32.226562 58.8125 L 32.46875 58.570312 L 33.007812 58.128906 L 33.496094 57.691406 L 34.226562 56.957031 L 35.007812 57.152344 L 35.695312 57.25 L 37.351562 57.25 L 38.234375 57.105469 L 39.0625 56.859375 L 39.890625 56.519531 L 40.578125 56.128906 L 41.0625 55.738281 L 41.40625 55.445312 L 41.894531 54.808594 L 42.285156 54.078125 L 42.480469 53.34375 L 42.53125 53.101562 L 42.53125 51.929688 L 42.382812 51.195312 L 42.140625 50.609375 L 41.796875 50.023438 L 41.359375 49.535156 L 40.722656 49.046875 L 39.941406 48.609375 L 39.210938 48.265625 L 37.988281 47.828125 L 36.035156 47.242188 L 35.15625 46.996094 L 34.960938 46.605469 L 34.570312 45.53125 L 34.179688 44.703125 L 33.640625 43.824219 Z M 33.640625 43.773438 "/>
<path style=" stroke:none;fill-rule:nonzero;fill:rgb(2.745098%,60.392157%,83.921569%);fill-opacity:1;" d="M 36.28125 33.421875 L 38.523438 33.421875 L 40.234375 33.714844 L 41.257812 34.007812 L 42.1875 34.351562 L 43.164062 34.839844 L 43.945312 35.375 L 44.628906 35.960938 L 45.019531 36.402344 L 44.773438 36.644531 L 43.898438 37.28125 L 42.96875 37.964844 L 42.773438 38.011719 L 42.335938 37.523438 L 41.945312 37.132812 L 41.257812 36.644531 L 40.332031 36.15625 L 39.453125 35.863281 L 38.523438 35.667969 L 38.039062 35.621094 L 36.425781 35.621094 L 35.5 35.765625 L 34.523438 36.058594 L 33.691406 36.449219 L 33.105469 36.839844 L 32.617188 37.28125 L 32.273438 37.621094 L 31.882812 38.257812 L 31.640625 38.792969 L 31.445312 39.625 L 31.445312 40.796875 L 31.59375 41.625 L 30.515625 40.941406 L 29.589844 40.453125 L 28.613281 40.0625 L 28.613281 39.625 L 28.757812 38.746094 L 29.003906 37.964844 L 29.25 37.425781 L 29.539062 36.890625 L 30.03125 36.253906 L 30.371094 35.863281 L 30.761719 35.523438 L 31.492188 34.984375 L 32.273438 34.546875 L 33.007812 34.203125 L 34.179688 33.8125 L 35.253906 33.570312 Z M 36.28125 33.421875 "/>
<path style=" stroke:none;fill-rule:nonzero;fill:rgb(2.745098%,60.392157%,83.921569%);fill-opacity:1;" d="M 48.339844 42.457031 L 50.929688 42.457031 L 50.976562 42.503906 L 50.976562 58.863281 L 48.339844 58.863281 L 48.289062 54.957031 L 48.289062 48.851562 Z M 48.339844 42.457031 "/>
<path style=" stroke:none;fill-rule:nonzero;fill:rgb(2.745098%,60.392157%,83.921569%);fill-opacity:1;" d="M 49.265625 36.207031 L 50 36.207031 L 50.539062 36.351562 L 51.125 36.644531 L 51.660156 37.132812 L 51.90625 37.523438 L 52.050781 37.964844 L 52.101562 38.5 L 52 39.039062 L 51.710938 39.625 L 51.414062 39.964844 L 50.929688 40.308594 L 50.34375 40.550781 L 49.804688 40.648438 L 49.121094 40.601562 L 48.484375 40.355469 L 47.949219 40.015625 L 47.558594 39.574219 L 47.3125 39.085938 L 47.21875 38.746094 L 47.21875 38.109375 L 47.363281 37.621094 L 47.65625 37.132812 L 48.046875 36.742188 L 48.484375 36.449219 Z M 49.265625 36.207031 "/>
<path style=" stroke:none;fill-rule:nonzero;fill:rgb(50.588235%,51.764706%,52.941176%);fill-opacity:1;" d="M 62.597656 63.011719 L 63.964844 63.011719 L 64.40625 64.429688 L 64.601562 65.0625 L 64.601562 65.160156 L 64.695312 65.160156 L 64.746094 64.722656 L 65.234375 63.207031 L 65.332031 63.011719 L 66.601562 63.011719 L 67.234375 65.015625 L 67.234375 65.160156 L 67.335938 65.160156 L 67.429688 64.671875 L 67.921875 63.011719 L 69.289062 63.011719 L 68.066406 66.1875 L 67.96875 66.429688 L 66.699219 66.480469 L 66.453125 65.894531 L 65.917969 64.378906 L 65.773438 64.769531 L 65.234375 66.382812 L 65.1875 66.429688 L 63.964844 66.480469 L 63.820312 66.285156 L 62.988281 64.085938 L 62.597656 63.0625 Z M 62.597656 63.011719 "/>
<path style=" stroke:none;fill-rule:nonzero;fill:rgb(50.196078%,51.764706%,52.941176%);fill-opacity:1;" d="M 78.757812 61.207031 L 80.03125 61.207031 L 80.03125 64.378906 L 80.273438 64.136719 L 80.90625 63.402344 L 81.25 63.011719 L 82.765625 63.011719 L 82.46875 63.355469 L 82.03125 63.84375 L 81.59375 64.28125 L 81.398438 64.527344 L 81.492188 64.722656 L 82.03125 65.40625 L 82.714844 66.234375 L 82.8125 66.429688 L 81.25 66.429688 L 80.566406 65.503906 L 80.078125 64.867188 L 80.03125 66.429688 L 78.757812 66.429688 Z M 78.757812 61.207031 "/>
<path style=" stroke:none;fill-rule:nonzero;fill:rgb(50.588235%,51.764706%,52.941176%);fill-opacity:1;" d="M 71.875 62.867188 L 72.558594 62.914062 L 73.046875 63.0625 L 73.535156 63.355469 L 73.875 63.695312 L 74.121094 64.183594 L 74.171875 64.378906 L 74.171875 65.015625 L 74.023438 65.503906 L 73.730469 65.894531 L 73.339844 66.234375 L 72.949219 66.429688 L 72.507812 66.578125 L 71.632812 66.578125 L 71.046875 66.382812 L 70.554688 66.089844 L 70.164062 65.648438 L 69.96875 65.160156 L 69.921875 64.625 L 70.019531 64.136719 L 70.265625 63.648438 L 70.703125 63.257812 L 71.191406 63.011719 Z M 71.777344 63.84375 L 71.484375 63.988281 L 71.242188 64.28125 L 71.140625 64.625 L 71.191406 65.0625 L 71.484375 65.453125 L 71.777344 65.601562 L 72.3125 65.601562 L 72.609375 65.453125 L 72.898438 65.113281 L 72.949219 64.964844 L 72.949219 64.476562 L 72.804688 64.183594 L 72.460938 63.890625 L 72.3125 63.84375 Z M 71.777344 63.84375 "/>
<path style=" stroke:none;fill-rule:nonzero;fill:rgb(50.980392%,52.54902%,53.333333%);fill-opacity:1;" d="M 56.59375 62.867188 L 57.273438 62.914062 L 57.8125 63.109375 L 58.25 63.453125 L 58.546875 63.941406 L 58.691406 64.476562 L 58.691406 65.015625 L 58.640625 65.0625 L 55.90625 65.0625 L 56.101562 65.355469 L 56.347656 65.550781 L 56.59375 65.648438 L 57.078125 65.648438 L 57.46875 65.503906 L 57.617188 65.355469 L 57.859375 65.40625 L 58.546875 65.796875 L 58.398438 66.039062 L 57.960938 66.332031 L 57.46875 66.527344 L 57.226562 66.578125 L 56.398438 66.578125 L 55.664062 66.332031 L 55.273438 66.039062 L 54.929688 65.648438 L 54.734375 65.160156 L 54.734375 64.332031 L 54.980469 63.746094 L 55.320312 63.355469 L 55.8125 63.0625 L 56.25 62.914062 Z M 56.445312 63.695312 L 56.152344 63.890625 L 55.957031 64.136719 L 55.90625 64.332031 L 57.570312 64.332031 L 57.46875 63.988281 L 57.179688 63.746094 L 57.078125 63.695312 Z M 56.445312 63.695312 "/>
<path style=" stroke:none;fill-rule:nonzero;fill:rgb(51.372549%,52.54902%,53.72549%);fill-opacity:1;" d="M 43.164062 62.867188 L 43.796875 62.914062 L 44.335938 63.109375 L 44.726562 63.402344 L 44.96875 63.695312 L 45.164062 64.136719 L 45.265625 64.867188 L 45.265625 65.015625 L 45.164062 65.0625 L 42.480469 65.113281 L 42.726562 65.453125 L 42.96875 65.601562 L 43.164062 65.648438 L 43.652344 65.648438 L 44.140625 65.40625 L 44.335938 65.355469 L 44.875 65.699219 L 45.070312 65.796875 L 44.96875 65.992188 L 44.53125 66.332031 L 43.992188 66.527344 L 43.796875 66.578125 L 42.921875 66.578125 L 42.335938 66.382812 L 41.84375 66.089844 L 41.503906 65.699219 L 41.308594 65.257812 L 41.257812 64.964844 L 41.257812 64.527344 L 41.359375 64.085938 L 41.648438 63.597656 L 41.992188 63.257812 L 42.480469 63.011719 Z M 43.015625 63.695312 L 42.675781 63.890625 L 42.480469 64.183594 L 42.480469 64.332031 L 44.09375 64.332031 L 44.042969 64.039062 L 43.796875 63.792969 L 43.652344 63.695312 Z M 43.015625 63.695312 "/>
<path style=" stroke:none;fill-rule:nonzero;fill:rgb(51.372549%,52.156863%,52.941176%);fill-opacity:1;" d="M 35.398438 62.867188 L 35.890625 62.914062 L 36.328125 63.109375 L 36.621094 63.355469 L 36.867188 63.84375 L 36.914062 64.183594 L 36.914062 66.429688 L 35.644531 66.429688 L 35.59375 64.332031 L 35.449219 63.988281 L 35.253906 63.890625 L 34.863281 63.890625 L 34.570312 64.085938 L 34.472656 64.28125 L 34.421875 64.964844 L 34.421875 66.429688 L 33.15625 66.429688 L 33.105469 66.234375 L 33.105469 63.011719 L 34.375 63.011719 L 34.375 63.402344 L 34.71875 63.109375 L 35.109375 62.914062 Z M 35.398438 62.867188 "/>
<path style=" stroke:none;fill-rule:nonzero;fill:rgb(50.196078%,51.764706%,52.941176%);fill-opacity:1;" d="M 51.804688 62.914062 L 52.539062 62.914062 L 53.027344 63.109375 L 53.273438 63.355469 L 53.515625 63.746094 L 53.5625 63.941406 L 53.5625 66.429688 L 52.34375 66.429688 L 52.246094 64.234375 L 52.101562 63.988281 L 51.953125 63.890625 L 51.515625 63.890625 L 51.21875 64.136719 L 51.125 64.378906 L 51.074219 66.429688 L 49.804688 66.429688 L 49.804688 63.011719 L 51.023438 63.011719 L 51.023438 63.402344 L 51.5625 63.011719 Z M 51.804688 62.914062 "/>
<path style=" stroke:none;fill-rule:nonzero;fill:rgb(50.588235%,52.156863%,53.333333%);fill-opacity:1;" d="M 59.960938 62.085938 L 61.230469 62.085938 L 61.230469 63.011719 L 62.109375 63.011719 L 62.109375 63.84375 L 61.230469 63.84375 L 61.28125 65.453125 L 61.328125 65.550781 L 61.476562 65.601562 L 62.0625 65.648438 L 62.0625 66.429688 L 61.71875 66.527344 L 60.984375 66.527344 L 60.5 66.382812 L 60.203125 66.136719 L 60.007812 65.746094 L 59.960938 64.722656 L 59.960938 63.84375 L 59.375 63.84375 L 59.375 63.011719 L 59.960938 63.011719 Z M 59.960938 62.085938 "/>
<path style=" stroke:none;fill-rule:nonzero;fill:rgb(50.196078%,51.372549%,52.156863%);fill-opacity:1;" d="M 38.378906 62.085938 L 39.601562 62.085938 L 39.601562 63.011719 L 40.476562 63.011719 L 40.476562 63.84375 L 39.601562 63.84375 L 39.648438 65.40625 L 39.695312 65.550781 L 39.84375 65.601562 L 40.429688 65.648438 L 40.476562 66.382812 L 40.136719 66.527344 L 39.304688 66.527344 L 38.867188 66.382812 L 38.574219 66.136719 L 38.378906 65.648438 L 38.378906 63.84375 L 37.742188 63.84375 L 37.742188 63.011719 L 38.378906 62.964844 Z M 38.378906 62.085938 "/>
<path style=" stroke:none;fill-rule:nonzero;fill:rgb(51.372549%,52.54902%,53.72549%);fill-opacity:1;" d="M 48.289062 62.914062 L 48.925781 62.914062 L 48.925781 63.453125 L 48.875 63.941406 L 48.289062 63.941406 L 48 64.085938 L 47.753906 64.378906 L 47.703125 64.476562 L 47.65625 66.429688 L 46.386719 66.429688 L 46.386719 63.011719 L 47.609375 63.011719 L 47.65625 63.402344 L 48.09375 63.011719 Z M 48.289062 62.914062 "/>
<path style=" stroke:none;fill-rule:nonzero;fill:rgb(50.196078%,51.372549%,52.156863%);fill-opacity:1;" d="M 77.296875 62.914062 L 77.882812 62.914062 L 77.832031 63.941406 L 77.246094 63.941406 L 76.855469 64.136719 L 76.660156 64.476562 L 76.609375 66.429688 L 75.34375 66.429688 L 75.34375 63.011719 L 76.5625 63.011719 L 76.609375 63.402344 L 77.050781 63.011719 Z M 77.296875 62.914062 "/>
<path style=" stroke:none;fill-rule:nonzero;fill:rgb(50.588235%,51.372549%,52.156863%);fill-opacity:1;" d="M 31.6875 62.964844 L 31.789062 63.0625 L 31.738281 66.429688 L 30.515625 66.429688 L 30.515625 63.011719 Z M 31.6875 62.964844 "/>
<path style=" stroke:none;fill-rule:nonzero;fill:rgb(49.803922%,51.764706%,53.333333%);fill-opacity:1;" d="M 30.957031 61.253906 L 31.445312 61.304688 L 31.6875 61.449219 L 31.835938 61.695312 L 31.835938 62.085938 L 31.542969 62.425781 L 31.25 62.523438 L 30.8125 62.476562 L 30.46875 62.183594 L 30.421875 62.085938 L 30.421875 61.695312 L 30.710938 61.351562 Z M 30.957031 61.253906 "/>
</g>
</svg>
