<?xml version="1.0" encoding="UTF-8"?>
<svg xmlns="http://www.w3.org/2000/svg" xmlns:xlink="http://www.w3.org/1999/xlink" width="200px" height="200px" viewBox="0 0 200 200" version="1.1">
<g id="surface1">
<path style=" stroke:none;fill-rule:nonzero;fill:rgb(50.588235%,51.372549%,52.156863%);fill-opacity:1;" d="M 47.558594 81.6875 L 49.902344 81.6875 L 52.246094 81.882812 L 54.882812 82.375 L 57.226562 83.15625 L 59.667969 84.328125 L 60.839844 85.109375 L 62.109375 86.085938 L 63.378906 87.257812 L 64.257812 88.328125 L 65.136719 89.5 L 66.015625 91.0625 L 66.796875 92.726562 L 67.382812 94.578125 L 67.871094 96.828125 L 68.066406 98.390625 L 68.164062 99.851562 L 68.164062 102.492188 L 68.066406 103.367188 L 40.234375 103.46875 L 40.722656 105.125 L 41.308594 106.203125 L 42.089844 107.179688 L 43.457031 108.25 L 45.117188 109.132812 L 46.582031 109.617188 L 48.339844 109.914062 L 50.585938 109.914062 L 52.441406 109.617188 L 54.003906 109.132812 L 55.566406 108.351562 L 56.640625 107.570312 L 57.324219 106.984375 L 57.8125 106.398438 L 58.398438 106.59375 L 60.742188 107.960938 L 63.476562 109.523438 L 65.820312 110.890625 L 66.601562 111.375 L 66.40625 111.867188 L 64.84375 113.523438 L 63.867188 114.40625 L 62.207031 115.578125 L 60.058594 116.75 L 58.007812 117.53125 L 56.054688 118.117188 L 54.101562 118.507812 L 51.5625 118.796875 L 46.972656 118.796875 L 44.53125 118.507812 L 41.894531 117.921875 L 39.550781 117.140625 L 36.914062 115.867188 L 34.863281 114.5 L 33.59375 113.429688 L 32.128906 111.960938 L 31.152344 110.695312 L 30.371094 109.421875 L 29.589844 107.859375 L 28.90625 106.101562 L 28.417969 104.054688 L 28.125 101.804688 L 28.125 98.875 L 28.515625 96.242188 L 29.101562 94.1875 L 29.6875 92.625 L 30.664062 90.773438 L 31.835938 89.109375 L 32.910156 87.9375 L 34.277344 86.570312 L 35.546875 85.59375 L 37.109375 84.617188 L 38.964844 83.640625 L 41.015625 82.859375 L 43.164062 82.273438 L 45.3125 81.882812 Z M 48.144531 89.601562 L 46.289062 89.890625 L 44.824219 90.382812 L 43.554688 91.0625 L 42.578125 91.84375 L 41.503906 92.921875 L 40.722656 94.289062 L 40.234375 95.851562 L 40.234375 96.242188 L 56.445312 96.242188 L 56.445312 95.164062 L 56.054688 93.703125 L 55.46875 92.53125 L 54.394531 91.359375 L 53.613281 90.773438 L 52.441406 90.1875 L 51.171875 89.796875 L 49.707031 89.601562 Z M 48.144531 89.601562 "/>
<path style=" stroke:none;fill-rule:nonzero;fill:rgb(50.588235%,51.372549%,52.156863%);fill-opacity:1;" d="M 0 68.117188 L 13.28125 68.117188 L 13.28125 107.273438 L 24.707031 107.273438 L 25 108.054688 L 27.050781 115.382812 L 27.636719 117.429688 L 27.636719 117.726562 L 0 117.726562 Z M 0 68.117188 "/>
<path style=" stroke:none;fill-rule:nonzero;fill:rgb(2.745098%,60.392157%,83.921569%);fill-opacity:1;" d="M 160.839844 84.132812 L 164.160156 84.132812 L 166.015625 84.421875 L 168.066406 85.109375 L 169.53125 85.890625 L 170.507812 86.671875 L 171.484375 87.546875 L 172.558594 88.914062 L 173.535156 90.671875 L 173.632812 90.867188 L 174.414062 89.695312 L 175.488281 88.328125 L 176.464844 87.351562 L 177.929688 86.28125 L 179.492188 85.398438 L 181.347656 84.71875 L 183.007812 84.328125 L 184.375 84.132812 L 188.085938 84.132812 L 190.234375 84.421875 L 192.285156 85.007812 L 193.847656 85.695312 L 195.214844 86.570312 L 196.484375 87.648438 L 197.265625 88.523438 L 197.949219 89.5 L 198.828125 91.164062 L 199.511719 93.210938 L 200 95.75 L 200 117.726562 L 194.726562 117.726562 L 194.628906 97.898438 L 194.335938 95.554688 L 193.847656 93.703125 L 193.164062 92.140625 L 192.285156 90.867188 L 191.308594 89.890625 L 190.039062 89.109375 L 188.867188 88.625 L 187.695312 88.328125 L 185.9375 88.132812 L 184.863281 88.132812 L 183.105469 88.328125 L 181.640625 88.71875 L 180.078125 89.5 L 179.003906 90.28125 L 178.125 91.0625 L 177.050781 92.625 L 176.269531 94.1875 L 175.683594 96.140625 L 175.390625 97.703125 L 175.292969 98.679688 L 175.195312 117.726562 L 169.921875 117.726562 L 169.824219 97.21875 L 169.628906 95.070312 L 169.238281 93.3125 L 168.652344 91.75 L 167.871094 90.578125 L 167.089844 89.796875 L 166.015625 89.109375 L 164.84375 88.625 L 163.671875 88.328125 L 161.816406 88.132812 L 160.742188 88.132812 L 159.277344 88.328125 L 157.617188 88.820312 L 155.957031 89.695312 L 154.6875 90.671875 L 153.808594 91.554688 L 152.832031 92.921875 L 151.953125 94.578125 L 151.269531 96.632812 L 150.976562 98.09375 L 150.78125 100.539062 L 150.78125 117.625 L 150.683594 117.726562 L 145.507812 117.726562 L 145.410156 91.0625 L 145.3125 87.84375 L 145.214844 86.179688 L 145.214844 84.914062 L 150.195312 84.914062 L 150.390625 87.257812 L 150.488281 89.5 L 150.585938 90.476562 L 151.5625 89.109375 L 152.441406 88.132812 L 153.417969 87.15625 L 155.175781 85.984375 L 156.738281 85.203125 L 158.398438 84.617188 L 160.15625 84.226562 Z M 160.839844 84.132812 "/>
<path style=" stroke:none;fill-rule:nonzero;fill:rgb(2.745098%,60.392157%,83.921569%);fill-opacity:1;" d="M 121.484375 84.132812 L 125.683594 84.132812 L 128.222656 84.523438 L 129.980469 85.007812 L 131.835938 85.789062 L 133.398438 86.765625 L 134.863281 88.039062 L 135.9375 89.40625 L 136.71875 90.773438 L 137.304688 92.335938 L 137.597656 93.601562 L 137.792969 95.945312 L 137.890625 112.84375 L 138.183594 116.257812 L 138.378906 117.726562 L 133.691406 117.726562 L 133.59375 117.625 L 133.203125 114.40625 L 133.105469 112.453125 L 132.617188 112.9375 L 131.445312 114.210938 L 130.46875 115.1875 L 129.003906 116.257812 L 127.441406 117.140625 L 125.976562 117.726562 L 124.121094 118.210938 L 122.070312 118.507812 L 118.066406 118.507812 L 116.210938 118.210938 L 114.160156 117.625 L 112.597656 116.945312 L 111.425781 116.257812 L 110.546875 115.578125 L 109.667969 114.796875 L 108.691406 113.523438 L 108.007812 112.15625 L 107.519531 110.5 L 107.421875 109.8125 L 107.421875 107.273438 L 107.8125 105.515625 L 108.496094 103.953125 L 109.277344 102.882812 L 110.058594 102 L 111.328125 101.023438 L 112.890625 100.148438 L 114.941406 99.367188 L 116.992188 98.78125 L 119.628906 98.289062 L 121.875 98 L 125.878906 97.703125 L 129.6875 97.609375 L 132.8125 97.609375 L 132.714844 95.359375 L 132.421875 93.601562 L 131.835938 92.140625 L 131.152344 91.0625 L 130.664062 90.476562 L 129.492188 89.601562 L 128.125 88.914062 L 126.464844 88.429688 L 125.195312 88.234375 L 123.828125 88.132812 L 122.65625 88.132812 L 120.507812 88.328125 L 118.359375 88.820312 L 116.894531 89.304688 L 115.625 89.890625 L 114.355469 90.578125 L 112.988281 91.554688 L 112.5 91.945312 L 111.132812 90.578125 L 110.449219 89.796875 L 109.667969 89.015625 L 109.570312 88.71875 L 110.742188 87.742188 L 112.5 86.671875 L 114.550781 85.695312 L 116.601562 85.007812 L 119.140625 84.421875 Z M 128.515625 101.320312 L 124.609375 101.515625 L 121.484375 101.90625 L 119.140625 102.390625 L 116.796875 103.171875 L 115.332031 103.953125 L 114.355469 104.734375 L 113.574219 105.617188 L 112.988281 106.789062 L 112.792969 107.664062 L 112.792969 109.226562 L 113.085938 110.5 L 113.671875 111.671875 L 114.648438 112.742188 L 116.015625 113.625 L 117.578125 114.210938 L 118.847656 114.5 L 121.386719 114.695312 L 123.632812 114.5 L 125.292969 114.109375 L 126.855469 113.523438 L 128.417969 112.648438 L 129.6875 111.570312 L 130.371094 110.890625 L 131.445312 109.328125 L 132.226562 107.664062 L 132.617188 106.203125 L 132.8125 104.929688 L 132.8125 101.320312 Z M 128.515625 101.320312 "/>
<path style=" stroke:none;fill-rule:nonzero;fill:rgb(2.745098%,60.392157%,83.921569%);fill-opacity:1;" d="M 67.285156 87.546875 L 67.871094 87.742188 L 68.945312 88.234375 L 71.679688 89.210938 L 78.613281 91.359375 L 80.859375 92.140625 L 82.910156 93.015625 L 84.472656 93.796875 L 85.546875 94.484375 L 86.71875 95.359375 L 87.988281 96.53125 L 88.769531 97.507812 L 89.648438 98.976562 L 90.234375 100.4375 L 90.625 102 L 90.820312 103.5625 L 90.820312 105.90625 L 90.527344 107.765625 L 90.039062 109.523438 L 89.160156 111.375 L 88.378906 112.546875 L 87.304688 113.820312 L 86.621094 114.5 L 84.960938 115.773438 L 83.398438 116.648438 L 81.738281 117.429688 L 79.6875 118.117188 L 77.539062 118.601562 L 75.585938 118.898438 L 74.414062 118.992188 L 71.386719 118.992188 L 68.847656 118.703125 L 66.503906 118.210938 L 64.453125 117.625 L 64.941406 117.140625 L 66.015625 116.257812 L 66.992188 115.382812 L 68.457031 113.914062 L 70.019531 114.304688 L 71.386719 114.5 L 74.707031 114.5 L 76.464844 114.210938 L 78.125 113.71875 L 79.785156 113.039062 L 81.152344 112.257812 L 82.128906 111.476562 L 82.8125 110.890625 L 83.789062 109.617188 L 84.570312 108.15625 L 84.960938 106.6875 L 85.058594 106.203125 L 85.058594 103.859375 L 84.765625 102.390625 L 84.277344 101.21875 L 83.59375 100.046875 L 82.714844 99.070312 L 81.445312 98.09375 L 79.882812 97.21875 L 78.417969 96.53125 L 75.976562 95.65625 L 72.070312 94.484375 L 70.3125 93.992188 L 69.921875 93.210938 L 69.140625 91.0625 L 68.359375 89.40625 L 67.285156 87.648438 Z M 67.285156 87.546875 "/>
<path style=" stroke:none;fill-rule:nonzero;fill:rgb(2.745098%,60.392157%,83.921569%);fill-opacity:1;" d="M 72.558594 66.84375 L 77.050781 66.84375 L 80.46875 67.429688 L 82.519531 68.015625 L 84.375 68.703125 L 86.328125 69.679688 L 87.890625 70.75 L 89.257812 71.921875 L 90.039062 72.804688 L 89.550781 73.289062 L 87.792969 74.5625 L 85.9375 75.929688 L 85.546875 76.023438 L 84.667969 75.046875 L 83.886719 74.265625 L 82.519531 73.289062 L 80.664062 72.3125 L 78.90625 71.726562 L 77.050781 71.335938 L 76.074219 71.242188 L 72.851562 71.242188 L 70.996094 71.53125 L 69.042969 72.117188 L 67.382812 72.898438 L 66.210938 73.679688 L 65.234375 74.5625 L 64.550781 75.242188 L 63.769531 76.515625 L 63.28125 77.585938 L 62.890625 79.25 L 62.890625 81.59375 L 63.183594 83.25 L 61.035156 81.882812 L 59.179688 80.90625 L 57.226562 80.125 L 57.226562 79.25 L 57.519531 77.492188 L 58.007812 75.929688 L 58.496094 74.851562 L 59.082031 73.78125 L 60.058594 72.507812 L 60.742188 71.726562 L 61.523438 71.046875 L 62.988281 69.96875 L 64.550781 69.09375 L 66.015625 68.40625 L 68.359375 67.625 L 70.507812 67.140625 Z M 72.558594 66.84375 "/>
<path style=" stroke:none;fill-rule:nonzero;fill:rgb(2.745098%,60.392157%,83.921569%);fill-opacity:1;" d="M 96.679688 84.914062 L 101.855469 84.914062 L 101.953125 85.007812 L 101.953125 117.726562 L 96.679688 117.726562 L 96.582031 109.914062 L 96.582031 97.703125 Z M 96.679688 84.914062 "/>
<path style=" stroke:none;fill-rule:nonzero;fill:rgb(2.745098%,60.392157%,83.921569%);fill-opacity:1;" d="M 98.535156 72.414062 L 100 72.414062 L 101.074219 72.703125 L 102.246094 73.289062 L 103.320312 74.265625 L 103.808594 75.046875 L 104.101562 75.929688 L 104.199219 77 L 104.003906 78.078125 L 103.417969 79.25 L 102.832031 79.929688 L 101.855469 80.617188 L 100.683594 81.101562 L 99.609375 81.296875 L 98.242188 81.203125 L 96.972656 80.710938 L 95.898438 80.03125 L 95.117188 79.148438 L 94.628906 78.171875 L 94.433594 77.492188 L 94.433594 76.21875 L 94.726562 75.242188 L 95.3125 74.265625 L 96.09375 73.484375 L 96.972656 72.898438 Z M 98.535156 72.414062 "/>
<path style=" stroke:none;fill-rule:nonzero;fill:rgb(50.588235%,51.764706%,52.941176%);fill-opacity:1;" d="M 125.195312 126.023438 L 127.929688 126.023438 L 128.808594 128.859375 L 129.199219 130.125 L 129.199219 130.320312 L 129.394531 130.320312 L 129.492188 129.445312 L 130.46875 126.414062 L 130.664062 126.023438 L 133.203125 126.023438 L 134.472656 130.03125 L 134.472656 130.320312 L 134.667969 130.320312 L 134.863281 129.34375 L 135.839844 126.023438 L 138.574219 126.023438 L 136.132812 132.375 L 135.9375 132.859375 L 133.398438 132.960938 L 132.910156 131.789062 L 131.835938 128.757812 L 131.542969 129.539062 L 130.46875 132.765625 L 130.371094 132.859375 L 127.929688 132.960938 L 127.636719 132.570312 L 125.976562 128.171875 L 125.195312 126.125 Z M 125.195312 126.023438 "/>
<path style=" stroke:none;fill-rule:nonzero;fill:rgb(50.196078%,51.764706%,52.941176%);fill-opacity:1;" d="M 157.519531 122.414062 L 160.058594 122.414062 L 160.058594 128.757812 L 160.546875 128.273438 L 161.816406 126.804688 L 162.5 126.023438 L 165.527344 126.023438 L 164.941406 126.710938 L 164.0625 127.6875 L 163.183594 128.5625 L 162.792969 129.054688 L 162.988281 129.445312 L 164.0625 130.8125 L 165.429688 132.46875 L 165.625 132.859375 L 162.5 132.859375 L 161.132812 131.007812 L 160.15625 129.734375 L 160.058594 132.859375 L 157.519531 132.859375 Z M 157.519531 122.414062 "/>
<path style=" stroke:none;fill-rule:nonzero;fill:rgb(50.588235%,51.764706%,52.941176%);fill-opacity:1;" d="M 143.75 125.734375 L 145.117188 125.828125 L 146.09375 126.125 L 147.070312 126.710938 L 147.753906 127.390625 L 148.242188 128.367188 L 148.339844 128.757812 L 148.339844 130.03125 L 148.046875 131.007812 L 147.460938 131.789062 L 146.679688 132.46875 L 145.898438 132.859375 L 145.019531 133.15625 L 143.261719 133.15625 L 142.089844 132.765625 L 141.113281 132.179688 L 140.332031 131.296875 L 139.941406 130.320312 L 139.84375 129.25 L 140.039062 128.273438 L 140.527344 127.296875 L 141.40625 126.515625 L 142.382812 126.023438 Z M 143.554688 127.6875 L 142.96875 127.976562 L 142.480469 128.5625 L 142.285156 129.25 L 142.382812 130.125 L 142.96875 130.90625 L 143.554688 131.203125 L 144.628906 131.203125 L 145.214844 130.90625 L 145.800781 130.226562 L 145.898438 129.929688 L 145.898438 128.953125 L 145.605469 128.367188 L 144.921875 127.78125 L 144.628906 127.6875 Z M 143.554688 127.6875 "/>
<path style=" stroke:none;fill-rule:nonzero;fill:rgb(50.980392%,52.54902%,53.333333%);fill-opacity:1;" d="M 113.183594 125.734375 L 114.550781 125.828125 L 115.625 126.21875 L 116.503906 126.90625 L 117.089844 127.882812 L 117.382812 128.953125 L 117.382812 130.03125 L 117.285156 130.125 L 111.816406 130.125 L 112.207031 130.710938 L 112.695312 131.101562 L 113.183594 131.296875 L 114.160156 131.296875 L 114.941406 131.007812 L 115.234375 130.710938 L 115.722656 130.8125 L 117.089844 131.59375 L 116.796875 132.078125 L 115.917969 132.664062 L 114.941406 133.054688 L 114.453125 133.15625 L 112.792969 133.15625 L 111.328125 132.664062 L 110.546875 132.078125 L 109.863281 131.296875 L 109.472656 130.320312 L 109.472656 128.664062 L 109.960938 127.492188 L 110.644531 126.710938 L 111.621094 126.125 L 112.5 125.828125 Z M 112.890625 127.390625 L 112.304688 127.78125 L 111.914062 128.273438 L 111.816406 128.664062 L 115.136719 128.664062 L 114.941406 127.976562 L 114.355469 127.492188 L 114.160156 127.390625 Z M 112.890625 127.390625 "/>
<path style=" stroke:none;fill-rule:nonzero;fill:rgb(51.372549%,52.54902%,53.72549%);fill-opacity:1;" d="M 86.328125 125.734375 L 87.597656 125.828125 L 88.671875 126.21875 L 89.453125 126.804688 L 89.941406 127.390625 L 90.332031 128.273438 L 90.527344 129.734375 L 90.527344 130.03125 L 90.332031 130.125 L 84.960938 130.226562 L 85.449219 130.90625 L 85.9375 131.203125 L 86.328125 131.296875 L 87.304688 131.296875 L 88.28125 130.8125 L 88.671875 130.710938 L 89.746094 131.398438 L 90.136719 131.59375 L 89.941406 131.984375 L 89.0625 132.664062 L 87.988281 133.054688 L 87.597656 133.15625 L 85.839844 133.15625 L 84.667969 132.765625 L 83.691406 132.179688 L 83.007812 131.398438 L 82.617188 130.515625 L 82.519531 129.929688 L 82.519531 129.054688 L 82.714844 128.171875 L 83.300781 127.195312 L 83.984375 126.515625 L 84.960938 126.023438 Z M 86.035156 127.390625 L 85.351562 127.78125 L 84.960938 128.367188 L 84.960938 128.664062 L 88.183594 128.664062 L 88.085938 128.078125 L 87.597656 127.585938 L 87.304688 127.390625 Z M 86.035156 127.390625 "/>
<path style=" stroke:none;fill-rule:nonzero;fill:rgb(51.372549%,52.156863%,52.941176%);fill-opacity:1;" d="M 70.800781 125.734375 L 71.777344 125.828125 L 72.65625 126.21875 L 73.242188 126.710938 L 73.730469 127.6875 L 73.828125 128.367188 L 73.828125 132.859375 L 71.289062 132.859375 L 71.191406 128.664062 L 70.898438 127.976562 L 70.507812 127.78125 L 69.726562 127.78125 L 69.140625 128.171875 L 68.945312 128.5625 L 68.847656 129.929688 L 68.847656 132.859375 L 66.308594 132.859375 L 66.210938 132.46875 L 66.210938 126.023438 L 68.75 126.023438 L 68.75 126.804688 L 69.433594 126.21875 L 70.214844 125.828125 Z M 70.800781 125.734375 "/>
<path style=" stroke:none;fill-rule:nonzero;fill:rgb(50.196078%,51.764706%,52.941176%);fill-opacity:1;" d="M 103.613281 125.828125 L 105.078125 125.828125 L 106.054688 126.21875 L 106.542969 126.710938 L 107.03125 127.492188 L 107.128906 127.882812 L 107.128906 132.859375 L 104.6875 132.859375 L 104.492188 128.46875 L 104.199219 127.976562 L 103.90625 127.78125 L 103.027344 127.78125 L 102.441406 128.273438 L 102.246094 128.757812 L 102.148438 132.859375 L 99.609375 132.859375 L 99.609375 126.023438 L 102.050781 126.023438 L 102.050781 126.804688 L 103.125 126.023438 Z M 103.613281 125.828125 "/>
<path style=" stroke:none;fill-rule:nonzero;fill:rgb(50.588235%,52.156863%,53.333333%);fill-opacity:1;" d="M 119.921875 124.171875 L 122.460938 124.171875 L 122.460938 126.023438 L 124.21875 126.023438 L 124.21875 127.6875 L 122.460938 127.6875 L 122.558594 130.90625 L 122.65625 131.101562 L 122.949219 131.203125 L 124.121094 131.296875 L 124.121094 132.859375 L 123.4375 133.054688 L 121.972656 133.054688 L 120.996094 132.765625 L 120.410156 132.273438 L 120.019531 131.492188 L 119.921875 129.445312 L 119.921875 127.6875 L 118.75 127.6875 L 118.75 126.023438 L 119.921875 126.023438 Z M 119.921875 124.171875 "/>
<path style=" stroke:none;fill-rule:nonzero;fill:rgb(50.196078%,51.372549%,52.156863%);fill-opacity:1;" d="M 76.757812 124.171875 L 79.199219 124.171875 L 79.199219 126.023438 L 80.957031 126.023438 L 80.957031 127.6875 L 79.199219 127.6875 L 79.296875 130.8125 L 79.394531 131.101562 L 79.6875 131.203125 L 80.859375 131.296875 L 80.957031 132.765625 L 80.273438 133.054688 L 78.613281 133.054688 L 77.734375 132.765625 L 77.148438 132.273438 L 76.757812 131.296875 L 76.757812 127.6875 L 75.488281 127.6875 L 75.488281 126.023438 L 76.757812 125.929688 Z M 76.757812 124.171875 "/>
<path style=" stroke:none;fill-rule:nonzero;fill:rgb(51.372549%,52.54902%,53.72549%);fill-opacity:1;" d="M 96.582031 125.828125 L 97.851562 125.828125 L 97.851562 126.90625 L 97.753906 127.882812 L 96.582031 127.882812 L 95.996094 128.171875 L 95.507812 128.757812 L 95.410156 128.953125 L 95.3125 132.859375 L 92.773438 132.859375 L 92.773438 126.023438 L 95.214844 126.023438 L 95.3125 126.804688 L 96.191406 126.023438 Z M 96.582031 125.828125 "/>
<path style=" stroke:none;fill-rule:nonzero;fill:rgb(50.196078%,51.372549%,52.156863%);fill-opacity:1;" d="M 154.589844 125.828125 L 155.761719 125.828125 L 155.664062 127.882812 L 154.492188 127.882812 L 153.710938 128.273438 L 153.320312 128.953125 L 153.222656 132.859375 L 150.683594 132.859375 L 150.683594 126.023438 L 153.125 126.023438 L 153.222656 126.804688 L 154.101562 126.023438 Z M 154.589844 125.828125 "/>
<path style=" stroke:none;fill-rule:nonzero;fill:rgb(50.588235%,51.372549%,52.156863%);fill-opacity:1;" d="M 63.378906 125.929688 L 63.574219 126.125 L 63.476562 132.859375 L 61.035156 132.859375 L 61.035156 126.023438 Z M 63.378906 125.929688 "/>
<path style=" stroke:none;fill-rule:nonzero;fill:rgb(49.803922%,51.764706%,53.333333%);fill-opacity:1;" d="M 61.914062 122.507812 L 62.890625 122.609375 L 63.378906 122.898438 L 63.671875 123.390625 L 63.671875 124.171875 L 63.085938 124.851562 L 62.5 125.046875 L 61.621094 124.953125 L 60.9375 124.367188 L 60.839844 124.171875 L 60.839844 123.390625 L 61.425781 122.703125 Z M 61.914062 122.507812 "/>
</g>
</svg>
