<?xml version="1.0" encoding="UTF-8"?>
<svg xmlns="http://www.w3.org/2000/svg" xmlns:xlink="http://www.w3.org/1999/xlink" width="250px" height="250px" viewBox="0 0 250 250" version="1.1">
<g id="surface1">
<path style=" stroke:none;fill-rule:nonzero;fill:rgb(50.588235%,51.372549%,52.156863%);fill-opacity:1;" d="M 59.449219 102.113281 L 62.378906 102.113281 L 65.308594 102.355469 L 68.601562 102.964844 L 71.53125 103.941406 L 74.585938 105.40625 L 76.050781 106.382812 L 77.636719 107.605469 L 79.222656 109.070312 L 80.320312 110.414062 L 81.421875 111.878906 L 82.519531 113.832031 L 83.496094 115.90625 L 84.226562 118.226562 L 84.839844 121.03125 L 85.082031 122.984375 L 85.203125 124.816406 L 85.203125 128.113281 L 85.082031 129.210938 L 50.292969 129.332031 L 50.902344 131.410156 L 51.636719 132.75 L 52.613281 133.972656 L 54.320312 135.316406 L 56.398438 136.414062 L 58.226562 137.023438 L 60.425781 137.390625 L 63.234375 137.390625 L 65.550781 137.023438 L 67.503906 136.414062 L 69.457031 135.4375 L 70.800781 134.460938 L 71.65625 133.726562 L 72.265625 132.996094 L 73 133.238281 L 75.929688 134.949219 L 79.34375 136.902344 L 82.273438 138.609375 L 83.25 139.222656 L 83.007812 139.832031 L 81.054688 141.90625 L 79.835938 143.003906 L 77.757812 144.46875 L 75.074219 145.933594 L 72.507812 146.910156 L 70.070312 147.644531 L 67.625 148.132812 L 64.453125 148.5 L 58.714844 148.5 L 55.664062 148.132812 L 52.367188 147.398438 L 49.4375 146.421875 L 46.140625 144.835938 L 43.578125 143.128906 L 41.992188 141.785156 L 40.160156 139.953125 L 38.941406 138.367188 L 37.964844 136.78125 L 36.988281 134.828125 L 36.132812 132.628906 L 35.523438 130.066406 L 35.15625 127.257812 L 35.15625 123.597656 L 35.644531 120.300781 L 36.375 117.738281 L 37.109375 115.785156 L 38.328125 113.464844 L 39.796875 111.390625 L 41.136719 109.925781 L 42.847656 108.214844 L 44.433594 106.996094 L 46.386719 105.773438 L 48.707031 104.554688 L 51.269531 103.578125 L 53.953125 102.84375 L 56.640625 102.355469 Z M 60.179688 112 L 57.859375 112.367188 L 56.03125 112.976562 L 54.445312 113.832031 L 53.222656 114.808594 L 51.878906 116.148438 L 50.902344 117.859375 L 50.292969 119.8125 L 50.292969 120.300781 L 70.554688 120.300781 L 70.554688 118.957031 L 70.070312 117.125 L 69.335938 115.660156 L 67.992188 114.195312 L 67.015625 113.464844 L 65.550781 112.730469 L 63.964844 112.242188 L 62.132812 112 Z M 60.179688 112 "/>
<path style=" stroke:none;fill-rule:nonzero;fill:rgb(50.588235%,51.372549%,52.156863%);fill-opacity:1;" d="M 0 85.144531 L 16.601562 85.144531 L 16.601562 134.09375 L 30.882812 134.09375 L 31.25 135.070312 L 33.8125 144.226562 L 34.546875 146.789062 L 34.546875 147.15625 L 0 147.15625 Z M 0 85.144531 "/>
<path style=" stroke:none;fill-rule:nonzero;fill:rgb(2.745098%,60.392157%,83.921569%);fill-opacity:1;" d="M 201.050781 105.164062 L 205.199219 105.164062 L 207.519531 105.53125 L 210.082031 106.382812 L 211.914062 107.359375 L 213.132812 108.335938 L 214.355469 109.4375 L 215.699219 111.144531 L 216.917969 113.34375 L 217.039062 113.585938 L 218.015625 112.121094 L 219.359375 110.414062 L 220.582031 109.191406 L 222.414062 107.847656 L 224.367188 106.75 L 226.683594 105.894531 L 228.757812 105.40625 L 230.46875 105.164062 L 235.109375 105.164062 L 237.792969 105.53125 L 240.355469 106.261719 L 242.308594 107.117188 L 244.019531 108.214844 L 245.605469 109.558594 L 246.582031 110.65625 L 247.4375 111.878906 L 248.535156 113.953125 L 249.390625 116.515625 L 250 119.691406 L 250 147.15625 L 243.40625 147.15625 L 243.285156 122.375 L 242.921875 119.445312 L 242.308594 117.125 L 241.453125 115.171875 L 240.355469 113.585938 L 239.136719 112.367188 L 237.546875 111.390625 L 236.085938 110.777344 L 234.617188 110.414062 L 232.421875 110.167969 L 231.078125 110.167969 L 228.882812 110.414062 L 227.050781 110.902344 L 225.097656 111.878906 L 223.753906 112.855469 L 222.65625 113.832031 L 221.3125 115.785156 L 220.335938 117.738281 L 219.605469 120.179688 L 219.238281 122.132812 L 219.117188 123.351562 L 218.992188 147.15625 L 212.402344 147.15625 L 212.28125 121.519531 L 212.035156 118.835938 L 211.546875 116.636719 L 210.816406 114.683594 L 209.839844 113.21875 L 208.863281 112.242188 L 207.519531 111.390625 L 206.054688 110.777344 L 204.589844 110.414062 L 202.269531 110.167969 L 200.929688 110.167969 L 199.097656 110.414062 L 197.023438 111.023438 L 194.945312 112.121094 L 193.359375 113.34375 L 192.261719 114.441406 L 191.039062 116.148438 L 189.941406 118.226562 L 189.085938 120.789062 L 188.71875 122.621094 L 188.476562 125.671875 L 188.476562 147.035156 L 188.355469 147.15625 L 181.882812 147.15625 L 181.761719 113.832031 L 181.640625 109.800781 L 181.519531 107.726562 L 181.519531 106.140625 L 187.742188 106.140625 L 187.988281 109.070312 L 188.109375 111.878906 L 188.234375 113.097656 L 189.453125 111.390625 L 190.550781 110.167969 L 191.773438 108.949219 L 193.96875 107.484375 L 195.921875 106.507812 L 198 105.773438 L 200.195312 105.285156 Z M 201.050781 105.164062 "/>
<path style=" stroke:none;fill-rule:nonzero;fill:rgb(2.745098%,60.392157%,83.921569%);fill-opacity:1;" d="M 151.855469 105.164062 L 157.105469 105.164062 L 160.277344 105.652344 L 162.476562 106.261719 L 164.796875 107.238281 L 166.75 108.460938 L 168.578125 110.046875 L 169.921875 111.753906 L 170.898438 113.464844 L 171.632812 115.417969 L 171.996094 117.003906 L 172.242188 119.933594 L 172.363281 141.050781 L 172.730469 145.324219 L 172.972656 147.15625 L 167.113281 147.15625 L 166.992188 147.035156 L 166.503906 143.003906 L 166.382812 140.5625 L 165.773438 141.175781 L 164.304688 142.761719 L 163.085938 143.980469 L 161.253906 145.324219 L 159.300781 146.421875 L 157.46875 147.15625 L 155.152344 147.765625 L 152.585938 148.132812 L 147.582031 148.132812 L 145.265625 147.765625 L 142.699219 147.035156 L 140.746094 146.179688 L 139.28125 145.324219 L 138.183594 144.46875 L 137.085938 143.492188 L 135.863281 141.90625 L 135.007812 140.199219 L 134.398438 138.121094 L 134.277344 137.269531 L 134.277344 134.09375 L 134.765625 131.898438 L 135.621094 129.945312 L 136.597656 128.601562 L 137.574219 127.503906 L 139.160156 126.28125 L 141.113281 125.183594 L 143.675781 124.207031 L 146.242188 123.472656 L 149.535156 122.863281 L 152.34375 122.496094 L 157.347656 122.132812 L 162.109375 122.007812 L 166.015625 122.007812 L 165.894531 119.203125 L 165.527344 117.003906 L 164.796875 115.171875 L 163.941406 113.832031 L 163.328125 113.097656 L 161.867188 112 L 160.15625 111.144531 L 158.082031 110.535156 L 156.492188 110.289062 L 154.785156 110.167969 L 153.320312 110.167969 L 150.632812 110.414062 L 147.949219 111.023438 L 146.117188 111.632812 L 144.53125 112.367188 L 142.945312 113.21875 L 141.234375 114.441406 L 140.625 114.929688 L 138.914062 113.21875 L 138.0625 112.242188 L 137.085938 111.265625 L 136.960938 110.902344 L 138.429688 109.679688 L 140.625 108.335938 L 143.1875 107.117188 L 145.75 106.261719 L 148.925781 105.53125 Z M 160.644531 126.648438 L 155.761719 126.890625 L 151.855469 127.378906 L 148.925781 127.992188 L 145.996094 128.96875 L 144.164062 129.945312 L 142.945312 130.921875 L 141.96875 132.019531 L 141.234375 133.484375 L 140.992188 134.582031 L 140.992188 136.535156 L 141.359375 138.121094 L 142.089844 139.585938 L 143.3125 140.929688 L 145.019531 142.027344 L 146.972656 142.761719 L 148.558594 143.128906 L 151.734375 143.371094 L 154.539062 143.128906 L 156.617188 142.640625 L 158.570312 141.90625 L 160.523438 140.808594 L 162.109375 139.464844 L 162.964844 138.609375 L 164.304688 136.65625 L 165.28125 134.582031 L 165.773438 132.75 L 166.015625 131.164062 L 166.015625 126.648438 Z M 160.644531 126.648438 "/>
<path style=" stroke:none;fill-rule:nonzero;fill:rgb(2.745098%,60.392157%,83.921569%);fill-opacity:1;" d="M 84.105469 109.4375 L 84.839844 109.679688 L 86.179688 110.289062 L 89.601562 111.511719 L 98.265625 114.195312 L 101.074219 115.171875 L 103.636719 116.273438 L 105.589844 117.25 L 106.933594 118.101562 L 108.398438 119.203125 L 109.984375 120.667969 L 110.960938 121.886719 L 112.0625 123.71875 L 112.792969 125.550781 L 113.28125 127.503906 L 113.523438 129.457031 L 113.523438 132.386719 L 113.160156 134.703125 L 112.546875 136.902344 L 111.449219 139.222656 L 110.472656 140.6875 L 109.132812 142.273438 L 108.277344 143.128906 L 106.203125 144.714844 L 104.25 145.8125 L 102.171875 146.789062 L 99.609375 147.644531 L 96.921875 148.253906 L 94.484375 148.621094 L 93.015625 148.742188 L 89.234375 148.742188 L 86.058594 148.375 L 83.128906 147.765625 L 80.566406 147.035156 L 81.175781 146.421875 L 82.519531 145.324219 L 83.742188 144.226562 L 85.570312 142.394531 L 87.523438 142.882812 L 89.234375 143.128906 L 93.382812 143.128906 L 95.582031 142.761719 L 97.65625 142.152344 L 99.730469 141.296875 L 101.441406 140.320312 L 102.660156 139.34375 L 103.515625 138.609375 L 104.734375 137.023438 L 105.710938 135.191406 L 106.203125 133.363281 L 106.324219 132.75 L 106.324219 129.820312 L 105.957031 127.992188 L 105.347656 126.527344 L 104.492188 125.0625 L 103.394531 123.839844 L 101.804688 122.621094 L 99.851562 121.519531 L 98.023438 120.667969 L 94.96875 119.566406 L 90.085938 118.101562 L 87.890625 117.492188 L 87.402344 116.515625 L 86.425781 113.832031 L 85.449219 111.753906 L 84.105469 109.558594 Z M 84.105469 109.4375 "/>
<path style=" stroke:none;fill-rule:nonzero;fill:rgb(2.745098%,60.392157%,83.921569%);fill-opacity:1;" d="M 90.699219 83.558594 L 96.3125 83.558594 L 100.585938 84.289062 L 103.148438 85.023438 L 105.46875 85.875 L 107.910156 87.097656 L 109.863281 88.441406 L 111.570312 89.90625 L 112.546875 91.003906 L 111.9375 91.613281 L 109.742188 93.199219 L 107.421875 94.910156 L 106.933594 95.03125 L 105.835938 93.8125 L 104.859375 92.835938 L 103.148438 91.613281 L 100.828125 90.394531 L 98.632812 89.660156 L 96.3125 89.171875 L 95.09375 89.050781 L 91.0625 89.050781 L 88.746094 89.417969 L 86.304688 90.148438 L 84.226562 91.125 L 82.765625 92.101562 L 81.542969 93.199219 L 80.6875 94.054688 L 79.710938 95.640625 L 79.101562 96.984375 L 78.613281 99.058594 L 78.613281 101.988281 L 78.980469 104.066406 L 76.292969 102.355469 L 73.976562 101.136719 L 71.53125 100.160156 L 71.53125 99.058594 L 71.898438 96.863281 L 72.507812 94.910156 L 73.121094 93.566406 L 73.851562 92.222656 L 75.074219 90.636719 L 75.929688 89.660156 L 76.90625 88.804688 L 78.734375 87.464844 L 80.6875 86.363281 L 82.519531 85.511719 L 85.449219 84.535156 L 88.132812 83.921875 Z M 90.699219 83.558594 "/>
<path style=" stroke:none;fill-rule:nonzero;fill:rgb(2.745098%,60.392157%,83.921569%);fill-opacity:1;" d="M 120.851562 106.140625 L 127.320312 106.140625 L 127.441406 106.261719 L 127.441406 147.15625 L 120.851562 147.15625 L 120.726562 137.390625 L 120.726562 122.132812 Z M 120.851562 106.140625 "/>
<path style=" stroke:none;fill-rule:nonzero;fill:rgb(2.745098%,60.392157%,83.921569%);fill-opacity:1;" d="M 123.167969 90.515625 L 125 90.515625 L 126.34375 90.882812 L 127.808594 91.613281 L 129.148438 92.835938 L 129.761719 93.8125 L 130.125 94.910156 L 130.25 96.253906 L 130.003906 97.59375 L 129.273438 99.058594 L 128.539062 99.914062 L 127.320312 100.769531 L 125.855469 101.378906 L 124.511719 101.625 L 122.804688 101.5 L 121.214844 100.890625 L 119.875 100.035156 L 118.898438 98.9375 L 118.285156 97.71875 L 118.042969 96.863281 L 118.042969 95.277344 L 118.40625 94.054688 L 119.140625 92.835938 L 120.117188 91.859375 L 121.214844 91.125 Z M 123.167969 90.515625 "/>
<path style=" stroke:none;fill-rule:nonzero;fill:rgb(50.588235%,51.764706%,52.941176%);fill-opacity:1;" d="M 156.492188 157.53125 L 159.914062 157.53125 L 161.011719 161.070312 L 161.5 162.660156 L 161.5 162.902344 L 161.742188 162.902344 L 161.867188 161.804688 L 163.085938 158.019531 L 163.328125 157.53125 L 166.503906 157.53125 L 168.089844 162.535156 L 168.089844 162.902344 L 168.335938 162.902344 L 168.578125 161.683594 L 169.800781 157.53125 L 173.21875 157.53125 L 170.164062 165.464844 L 169.921875 166.078125 L 166.75 166.199219 L 166.136719 164.734375 L 164.796875 160.949219 L 164.429688 161.925781 L 163.085938 165.953125 L 162.964844 166.078125 L 159.914062 166.199219 L 159.546875 165.710938 L 157.46875 160.21875 L 156.492188 157.652344 Z M 156.492188 157.53125 "/>
<path style=" stroke:none;fill-rule:nonzero;fill:rgb(50.196078%,51.764706%,52.941176%);fill-opacity:1;" d="M 196.898438 153.015625 L 200.074219 153.015625 L 200.074219 160.949219 L 200.683594 160.339844 L 202.269531 158.507812 L 203.125 157.53125 L 206.910156 157.53125 L 206.175781 158.386719 L 205.078125 159.605469 L 203.980469 160.707031 L 203.492188 161.316406 L 203.734375 161.804688 L 205.078125 163.511719 L 206.789062 165.589844 L 207.03125 166.078125 L 203.125 166.078125 L 201.414062 163.757812 L 200.195312 162.171875 L 200.074219 166.078125 L 196.898438 166.078125 Z M 196.898438 153.015625 "/>
<path style=" stroke:none;fill-rule:nonzero;fill:rgb(50.588235%,51.764706%,52.941176%);fill-opacity:1;" d="M 179.6875 157.164062 L 181.398438 157.289062 L 182.617188 157.652344 L 183.835938 158.386719 L 184.691406 159.242188 L 185.304688 160.460938 L 185.425781 160.949219 L 185.425781 162.535156 L 185.058594 163.757812 L 184.328125 164.734375 L 183.351562 165.589844 L 182.375 166.078125 L 181.273438 166.441406 L 179.078125 166.441406 L 177.613281 165.953125 L 176.390625 165.222656 L 175.414062 164.125 L 174.925781 162.902344 L 174.804688 161.558594 L 175.046875 160.339844 L 175.660156 159.117188 L 176.757812 158.140625 L 177.976562 157.53125 Z M 179.445312 159.605469 L 178.710938 159.972656 L 178.101562 160.707031 L 177.855469 161.558594 L 177.976562 162.660156 L 178.710938 163.636719 L 179.445312 164 L 180.785156 164 L 181.519531 163.636719 L 182.25 162.78125 L 182.375 162.414062 L 182.375 161.195312 L 182.007812 160.460938 L 181.152344 159.730469 L 180.785156 159.605469 Z M 179.445312 159.605469 "/>
<path style=" stroke:none;fill-rule:nonzero;fill:rgb(50.980392%,52.54902%,53.333333%);fill-opacity:1;" d="M 141.480469 157.164062 L 143.1875 157.289062 L 144.53125 157.777344 L 145.628906 158.628906 L 146.363281 159.851562 L 146.726562 161.195312 L 146.726562 162.535156 L 146.605469 162.660156 L 139.769531 162.660156 L 140.257812 163.390625 L 140.867188 163.878906 L 141.480469 164.125 L 142.699219 164.125 L 143.675781 163.757812 L 144.042969 163.390625 L 144.652344 163.511719 L 146.363281 164.488281 L 145.996094 165.101562 L 144.898438 165.832031 L 143.675781 166.320312 L 143.066406 166.441406 L 140.992188 166.441406 L 139.160156 165.832031 L 138.183594 165.101562 L 137.328125 164.125 L 136.839844 162.902344 L 136.839844 160.828125 L 137.453125 159.363281 L 138.304688 158.386719 L 139.527344 157.652344 L 140.625 157.289062 Z M 141.113281 159.242188 L 140.382812 159.730469 L 139.890625 160.339844 L 139.769531 160.828125 L 143.921875 160.828125 L 143.675781 159.972656 L 142.945312 159.363281 L 142.699219 159.242188 Z M 141.113281 159.242188 "/>
<path style=" stroke:none;fill-rule:nonzero;fill:rgb(51.372549%,52.54902%,53.72549%);fill-opacity:1;" d="M 107.910156 157.164062 L 109.496094 157.289062 L 110.839844 157.777344 L 111.816406 158.507812 L 112.425781 159.242188 L 112.914062 160.339844 L 113.160156 162.171875 L 113.160156 162.535156 L 112.914062 162.660156 L 106.203125 162.78125 L 106.8125 163.636719 L 107.421875 164 L 107.910156 164.125 L 109.132812 164.125 L 110.351562 163.511719 L 110.839844 163.390625 L 112.183594 164.246094 L 112.671875 164.488281 L 112.425781 164.976562 L 111.328125 165.832031 L 109.984375 166.320312 L 109.496094 166.441406 L 107.300781 166.441406 L 105.835938 165.953125 L 104.613281 165.222656 L 103.757812 164.246094 L 103.273438 163.148438 L 103.148438 162.414062 L 103.148438 161.316406 L 103.394531 160.21875 L 104.125 158.996094 L 104.980469 158.140625 L 106.203125 157.53125 Z M 107.542969 159.242188 L 106.6875 159.730469 L 106.203125 160.460938 L 106.203125 160.828125 L 110.230469 160.828125 L 110.109375 160.09375 L 109.496094 159.484375 L 109.132812 159.242188 Z M 107.542969 159.242188 "/>
<path style=" stroke:none;fill-rule:nonzero;fill:rgb(51.372549%,52.156863%,52.941176%);fill-opacity:1;" d="M 88.5 157.164062 L 89.722656 157.289062 L 90.820312 157.777344 L 91.554688 158.386719 L 92.164062 159.605469 L 92.285156 160.460938 L 92.285156 166.078125 L 89.109375 166.078125 L 88.988281 160.828125 L 88.625 159.972656 L 88.132812 159.730469 L 87.15625 159.730469 L 86.425781 160.21875 L 86.179688 160.707031 L 86.058594 162.414062 L 86.058594 166.078125 L 82.886719 166.078125 L 82.765625 165.589844 L 82.765625 157.53125 L 85.9375 157.53125 L 85.9375 158.507812 L 86.792969 157.777344 L 87.769531 157.289062 Z M 88.5 157.164062 "/>
<path style=" stroke:none;fill-rule:nonzero;fill:rgb(50.196078%,51.764706%,52.941176%);fill-opacity:1;" d="M 129.515625 157.289062 L 131.347656 157.289062 L 132.570312 157.777344 L 133.179688 158.386719 L 133.789062 159.363281 L 133.910156 159.851562 L 133.910156 166.078125 L 130.859375 166.078125 L 130.617188 160.582031 L 130.25 159.972656 L 129.882812 159.730469 L 128.785156 159.730469 L 128.050781 160.339844 L 127.808594 160.949219 L 127.6875 166.078125 L 124.511719 166.078125 L 124.511719 157.53125 L 127.5625 157.53125 L 127.5625 158.507812 L 128.90625 157.53125 Z M 129.515625 157.289062 "/>
<path style=" stroke:none;fill-rule:nonzero;fill:rgb(50.588235%,52.156863%,53.333333%);fill-opacity:1;" d="M 149.902344 155.210938 L 153.078125 155.210938 L 153.078125 157.53125 L 155.273438 157.53125 L 155.273438 159.605469 L 153.078125 159.605469 L 153.199219 163.636719 L 153.320312 163.878906 L 153.6875 164 L 155.152344 164.125 L 155.152344 166.078125 L 154.296875 166.320312 L 152.464844 166.320312 L 151.246094 165.953125 L 150.511719 165.34375 L 150.023438 164.367188 L 149.902344 161.804688 L 149.902344 159.605469 L 148.4375 159.605469 L 148.4375 157.53125 L 149.902344 157.53125 Z M 149.902344 155.210938 "/>
<path style=" stroke:none;fill-rule:nonzero;fill:rgb(50.196078%,51.372549%,52.156863%);fill-opacity:1;" d="M 95.945312 155.210938 L 99 155.210938 L 99 157.53125 L 101.195312 157.53125 L 101.195312 159.605469 L 99 159.605469 L 99.121094 163.511719 L 99.242188 163.878906 L 99.609375 164 L 101.074219 164.125 L 101.195312 165.953125 L 100.34375 166.320312 L 98.265625 166.320312 L 97.167969 165.953125 L 96.4375 165.34375 L 95.945312 164.125 L 95.945312 159.605469 L 94.359375 159.605469 L 94.359375 157.53125 L 95.945312 157.410156 Z M 95.945312 155.210938 "/>
<path style=" stroke:none;fill-rule:nonzero;fill:rgb(51.372549%,52.54902%,53.72549%);fill-opacity:1;" d="M 120.726562 157.289062 L 122.3125 157.289062 L 122.3125 158.628906 L 122.191406 159.851562 L 120.726562 159.851562 L 119.996094 160.21875 L 119.382812 160.949219 L 119.261719 161.195312 L 119.140625 166.078125 L 115.96875 166.078125 L 115.96875 157.53125 L 119.019531 157.53125 L 119.140625 158.507812 L 120.238281 157.53125 Z M 120.726562 157.289062 "/>
<path style=" stroke:none;fill-rule:nonzero;fill:rgb(50.196078%,51.372549%,52.156863%);fill-opacity:1;" d="M 193.238281 157.289062 L 194.703125 157.289062 L 194.578125 159.851562 L 193.117188 159.851562 L 192.140625 160.339844 L 191.648438 161.195312 L 191.527344 166.078125 L 188.355469 166.078125 L 188.355469 157.53125 L 191.40625 157.53125 L 191.527344 158.507812 L 192.625 157.53125 Z M 193.238281 157.289062 "/>
<path style=" stroke:none;fill-rule:nonzero;fill:rgb(50.588235%,51.372549%,52.156863%);fill-opacity:1;" d="M 79.222656 157.410156 L 79.46875 157.652344 L 79.34375 166.078125 L 76.292969 166.078125 L 76.292969 157.53125 Z M 79.222656 157.410156 "/>
<path style=" stroke:none;fill-rule:nonzero;fill:rgb(49.803922%,51.764706%,53.333333%);fill-opacity:1;" d="M 77.390625 153.136719 L 78.613281 153.257812 L 79.222656 153.625 L 79.589844 154.234375 L 79.589844 155.210938 L 78.859375 156.066406 L 78.125 156.3125 L 77.027344 156.1875 L 76.171875 155.457031 L 76.050781 155.210938 L 76.050781 154.234375 L 76.78125 153.382812 Z M 77.390625 153.136719 "/>
</g>
</svg>
