<?xml version="1.0" encoding="UTF-8"?>
<svg version="1.1" viewBox="0 0 2048 679" width="1280" height="1280" xmlns="http://www.w3.org/2000/svg">
<path transform="translate(487,152)" d="m0 0h24l24 2 27 5 24 8 25 12 12 8 13 10 13 12 9 11 9 12 9 16 8 17 6 19 5 23 2 16 1 15v27l-1 9-285 1 5 17 6 11 8 10 14 11 17 9 15 5 18 3h23l19-3 16-5 16-8 11-8 7-6 5-6 6 2 24 14 28 16 24 14 8 5-2 5-16 17-10 9-17 12-22 12-21 8-20 6-20 4-26 3h-47l-25-3-27-6-24-8-27-13-21-14-13-11-15-15-10-13-8-13-8-16-7-18-5-21-3-23v-30l4-27 6-21 6-16 10-19 12-17 11-12 14-14 13-10 16-10 19-10 21-8 22-6 22-4zm6 81-19 3-15 5-13 7-10 8-11 11-8 14-5 16v4h166v-11l-4-15-6-12-11-12-8-6-12-6-13-4-15-2z" fill="#818385"/>
<path transform="translate(0,13)" d="m0 0h136v401h117l3 8 21 75 6 21v3h-283z" fill="#818385"/>
<path transform="translate(1647,177)" d="m0 0h34l19 3 21 7 15 8 10 8 10 9 11 14 10 18 1 2 8-12 11-14 10-10 15-11 16-9 19-7 17-4 14-2h38l22 3 21 6 16 7 14 9 13 11 8 9 7 10 9 17 7 21 5 26v225h-54l-1-203-3-24-5-19-7-16-9-13-10-10-13-8-12-5-12-3-18-2h-11l-18 2-15 4-16 8-11 8-9 8-11 16-8 16-6 20-3 16-1 10-1 195h-54l-1-210-2-22-4-18-6-16-8-12-8-8-11-7-12-5-12-3-19-2h-11l-15 2-17 5-17 9-13 10-9 9-10 14-9 17-7 21-3 15-2 25v175l-1 1h-53l-1-273-1-33-1-17v-13h51l2 24 1 23 1 10 10-14 9-10 10-10 18-12 16-8 17-6 18-4z" fill="#079AD6"/>
<path transform="translate(1244,177)" d="m0 0h43l26 4 18 5 19 8 16 10 15 13 11 14 8 14 6 16 3 13 2 24 1 173 3 35 2 15h-48l-1-1-4-33-1-20-5 5-12 13-10 10-15 11-16 9-15 6-19 5-21 3h-41l-19-3-21-6-16-7-12-7-9-7-9-8-10-13-7-14-5-17-1-7v-26l4-18 7-16 8-11 8-9 13-10 16-9 21-8 21-6 27-5 23-3 41-3 39-1h32l-1-23-3-18-6-15-7-11-5-6-12-9-14-7-17-5-13-2-14-1h-12l-22 2-22 5-15 5-13 6-13 7-14 10-5 4-14-14-7-8-8-8-1-3 12-10 18-11 21-10 21-7 26-6zm72 176-40 2-32 4-24 5-24 8-15 8-10 8-8 9-6 12-2 9v16l3 13 6 12 10 11 14 9 16 6 13 3 26 2 23-2 17-4 16-6 16-9 13-11 7-7 11-16 8-17 4-15 2-13v-37z" fill="#079AD6"/>
<path transform="translate(689,212)" d="m0 0 6 2 11 5 28 10 71 22 23 8 21 9 16 8 11 7 12 9 13 12 8 10 9 15 6 15 4 16 2 16v24l-3 19-5 18-9 19-8 12-11 13-7 7-17 13-16 9-17 8-21 7-22 5-20 3-12 1h-31l-26-3-24-5-21-6 5-5 11-9 10-9 15-15 16 4 14 2h34l18-3 17-5 17-7 14-8 10-8 7-6 10-13 8-15 4-15 1-5v-24l-3-15-5-12-7-12-9-10-13-10-16-9-15-7-25-9-40-12-18-5-4-8-8-22-8-17-11-18z" fill="#079AD6"/>
<path transform="translate(743)" d="m0 0h46l35 6 21 6 19 7 20 10 16 11 14 12 8 9-5 5-18 13-19 14-4 1-9-10-8-8-14-10-19-10-18-6-19-4-10-1h-33l-19 3-20 6-17 8-12 8-10 9-7 7-8 13-5 11-4 17v24l3 17-22-14-19-10-20-8v-9l3-18 5-16 5-11 6-11 10-13 7-8 8-7 15-11 16-9 15-7 24-8 22-5z" fill="#079AD6"/>
<path transform="translate(990,185)" d="m0 0h53l1 1v335h-54l-1-80v-125z" fill="#079AD6"/>
<path transform="translate(1009,57)" d="m0 0h15l11 3 12 6 11 10 5 8 3 9 1 11-2 11-6 12-6 7-10 7-12 5-11 2-14-1-13-5-11-7-8-9-5-10-2-7v-13l3-10 6-10 8-8 9-6z" fill="#079AD6"/>
<path transform="translate(1282,606)" d="m0 0h28l9 29 4 13v2h2l1-9 10-31 2-4h26l13 41v3h2l2-10 10-34h28l-25 65-2 5-26 1-5-12-11-31-3 8-11 33-1 1-25 1-3-4-17-45-8-21z" fill="#818487"/>
<path transform="translate(1613,569)" d="m0 0h26v65l5-5 13-15 7-8h31l-6 7-9 10-9 9-4 5 2 4 11 14 14 17 2 4h-32l-14-19-10-13-1 32h-26z" fill="#808487"/>
<path transform="translate(1472,603)" d="m0 0 14 1 10 3 10 6 7 7 5 10 1 4v13l-3 10-6 8-8 7-8 4-9 3h-18l-12-4-10-6-8-9-4-10-1-11 2-10 5-10 9-8 10-5zm-2 20-6 3-5 6-2 7 1 9 6 8 6 3h11l6-3 6-7 1-3v-10l-3-6-7-6-3-1z" fill="#818487"/>
<path transform="translate(1159,603)" d="m0 0 14 1 11 4 9 7 6 10 3 11v11l-1 1h-56l4 6 5 4 5 2h10l8-3 3-3 5 1 14 8-3 5-9 6-10 4-5 1h-17l-15-5-8-6-7-8-4-10v-17l5-12 7-8 10-6 9-3zm-3 17-6 4-4 5-1 4h34l-2-7-6-5-2-1z" fill="#828688"/>
<path transform="translate(884,603)" d="m0 0 13 1 11 4 8 6 5 6 4 9 2 15v3l-2 1-55 1 5 7 5 3 4 1h10l10-5 4-1 11 7 4 2-2 4-9 7-11 4-4 1h-18l-12-4-10-6-7-8-4-9-1-6v-9l2-9 6-10 7-7 10-5zm-3 17-7 4-4 6v3h33l-1-6-5-5-3-2z" fill="#838689"/>
<path transform="translate(725,603)" d="m0 0 10 1 9 4 6 5 5 10 1 7v46h-26l-1-43-3-7-4-2h-8l-6 4-2 4-1 14v30h-26l-1-4v-66h26v8l7-6 8-4z" fill="#838587"/>
<path transform="translate(1061,604)" d="m0 0h15l10 4 5 5 5 8 1 4v51h-25l-2-45-3-5-3-2h-9l-6 5-2 5-1 42h-26v-70h25v8l11-8z" fill="#808487"/>
<path transform="translate(1228,587)" d="m0 0h26v19h18v17h-18l1 33 1 2 3 1 12 1v16l-7 2h-15l-10-3-6-5-4-8-1-21v-18h-12v-17h12z" fill="#818588"/>
<path transform="translate(786,587)" d="m0 0h25v19h18v17h-18l1 32 1 3 3 1 12 1 1 15-7 3h-17l-9-3-6-5-4-10v-37h-13v-17l13-1z" fill="#808385"/>
<path transform="translate(989,604)" d="m0 0h13v11l-1 10h-12l-6 3-5 6-1 2-1 40h-26v-70h25l1 8 9-8z" fill="#838689"/>
<path transform="translate(1583,604)" d="m0 0h12l-1 21h-12l-8 4-4 7-1 40h-26v-70h25l1 8 9-8z" fill="#808385"/>
<path transform="translate(649,605)" d="m0 0 2 2-1 69h-25v-70z" fill="#818385"/>
<path transform="translate(634,570)" d="m0 0 10 1 5 3 3 5v8l-6 7-6 2-9-1-7-6-1-2v-8l6-7z" fill="#7F8488"/>
</svg>
